<?xml version="1.0" encoding="iso-8859-1"?>
<!-- Generator: Adobe Illustrator 27.0.0, SVG Export Plug-In . SVG Version: 6.00 Build 0)  -->
<svg version="1.1" id="Layer_1" xmlns="http://www.w3.org/2000/svg" xmlns:xlink="http://www.w3.org/1999/xlink" x="0px" y="0px"
	 viewBox="0 0 500 500" style="enable-background:new 0 0 500 500;" xml:space="preserve">
<g id="watermark_1_">
	<g>
		<g id="watermark" style="opacity:0.61;">
			<g>
				<g>
					<g>
						<g>
							<polygon style="fill:#FFFFFF;" points="213.765,461.172 208.204,474.017 205.268,474.017 199.726,461.172 202.938,461.172 
								206.846,470.347 210.81,461.172 							"/>
						</g>
						<g>
							<path style="fill:#FFFFFF;" d="M223.507,469.741h-7.469c0.275,1.23,1.321,1.982,2.826,1.982c1.046,0,1.798-0.312,2.477-0.954
								l1.523,1.651c-0.917,1.046-2.294,1.597-4.074,1.597c-3.413,0-5.634-2.147-5.634-5.083c0-2.954,2.257-5.083,5.267-5.083
								c2.899,0,5.138,1.945,5.138,5.12C223.562,469.191,223.526,469.503,223.507,469.741 M216.002,468.071h4.863
								c-0.202-1.248-1.138-2.055-2.422-2.055C217.139,466.016,216.204,466.805,216.002,468.071"/>
						</g>
						<g>
							<path style="fill:#FFFFFF;" d="M224.735,468.934c0-2.973,2.294-5.083,5.505-5.083c2.074,0,3.707,0.899,4.423,2.514
								l-2.22,1.193c-0.532-0.936-1.321-1.358-2.221-1.358c-1.45,0-2.587,1.009-2.587,2.734c0,1.725,1.138,2.734,2.587,2.734
								c0.899,0,1.688-0.404,2.221-1.358l2.22,1.211c-0.716,1.578-2.349,2.495-4.423,2.495
								C227.029,474.017,224.735,471.907,224.735,468.934"/>
						</g>
						<g>
							<path style="fill:#FFFFFF;" d="M242.828,473.393c-0.587,0.422-1.45,0.624-2.331,0.624c-2.33,0-3.688-1.193-3.688-3.542
								v-4.055h-1.523v-2.202h1.523v-2.404h2.863v2.404h2.459v2.202h-2.459v4.019c0,0.844,0.458,1.303,1.229,1.303
								c0.422,0,0.844-0.128,1.156-0.367L242.828,473.393z"/>
						</g>
					</g>
					<g>
						<path style="fill:#FFFFFF;" d="M262.474,463.997v2.643c-0.238-0.018-0.422-0.037-0.642-0.037
							c-1.578,0-2.624,0.862-2.624,2.753v4.661h-2.863v-9.873h2.734v1.303C259.776,464.493,260.951,463.997,262.474,463.997"/>
					</g>
					<g>
						<path style="fill:#FFFFFF;" d="M263.299,472.53l1.009-2.239c1.083,0.789,2.697,1.339,4.239,1.339
							c1.762,0,2.477-0.587,2.477-1.376c0-2.404-7.469-0.752-7.469-5.524c0-2.184,1.762-4,5.413-4c1.615,0,3.267,0.385,4.459,1.138
							l-0.918,2.257c-1.193-0.679-2.422-1.009-3.56-1.009c-1.761,0-2.44,0.66-2.44,1.468c0,2.367,7.468,0.734,7.468,5.45
							c0,2.147-1.78,3.982-5.45,3.982C266.492,474.017,264.437,473.411,263.299,472.53"/>
					</g>
					<g>
						<path style="fill:#FFFFFF;" d="M285.428,469.741h-7.469c0.275,1.23,1.321,1.982,2.826,1.982c1.046,0,1.798-0.312,2.477-0.954
							l1.523,1.651c-0.918,1.046-2.294,1.597-4.074,1.597c-3.413,0-5.634-2.147-5.634-5.083c0-2.954,2.257-5.083,5.267-5.083
							c2.9,0,5.138,1.945,5.138,5.12C285.484,469.191,285.447,469.503,285.428,469.741 M277.923,468.071h4.863
							c-0.202-1.248-1.138-2.055-2.422-2.055C279.061,466.016,278.125,466.805,277.923,468.071"/>
					</g>
					<g>
						<path style="fill:#FFFFFF;" d="M297.007,469.741h-7.469c0.275,1.23,1.321,1.982,2.826,1.982c1.046,0,1.798-0.312,2.477-0.954
							l1.523,1.651c-0.918,1.046-2.294,1.597-4.074,1.597c-3.413,0-5.634-2.147-5.634-5.083c0-2.954,2.257-5.083,5.267-5.083
							c2.899,0,5.138,1.945,5.138,5.12C297.062,469.191,297.025,469.503,297.007,469.741 M289.501,468.071h4.863
							c-0.202-1.248-1.138-2.055-2.422-2.055C290.639,466.016,289.703,466.805,289.501,468.071"/>
					</g>
					<g>
						<polygon style="fill:#FFFFFF;" points="303.208,470.145 301.831,471.503 301.831,474.017 298.969,474.017 298.969,460.401 
							301.831,460.401 301.831,468.108 306.016,464.144 309.429,464.144 305.318,468.328 309.796,474.017 306.327,474.017 						"/>
					</g>
					<g>
						<path style="fill:#FFFFFF;" d="M256.601,475.359L256.601,475.359l-2.86-2.86c-0.435,0.508-0.953,0.943-1.534,1.284
							c-0.092,0.069-0.186,0.136-0.283,0.199l3.027,3.027c0.456,0.456,1.195,0.456,1.65,0
							C257.057,476.554,257.057,475.815,256.601,475.359"/>
					</g>
					<g>
						<path style="fill:#FFFFFF;" d="M249.984,463.244c0.221-0.173,0.495-0.281,0.797-0.281c0.042,0,0.083,0.002,0.124,0.006
							c-0.214-0.156-0.478-0.249-0.764-0.249c-0.395,0-0.744,0.18-0.981,0.458c-0.051,0-0.1,0.006-0.151,0.008
							c0.039-0.077,0.064-0.162,0.064-0.255c0-0.234-0.143-0.434-0.346-0.519c0.087,0.126,0.138,0.279,0.138,0.445
							c0,0.122-0.031,0.237-0.081,0.341c-2.811,0.201-5.03,2.539-5.03,5.4c0,2.993,2.426,5.42,5.42,5.42
							c2.993,0,5.42-2.426,5.42-5.42C254.595,465.879,252.593,463.635,249.984,463.244 M247.983,464.656
							c0.435,0,0.844,0.112,1.199,0.309c0.374-0.245,0.82-0.387,1.299-0.387c0.711,0,1.348,0.312,1.784,0.806
							c-0.435-0.379-1.004-0.61-1.627-0.61c-0.449,0-0.87,0.12-1.234,0.329c-0.079,0.046-0.156,0.096-0.229,0.15
							c-0.065-0.048-0.133-0.093-0.204-0.134c-0.369-0.219-0.8-0.344-1.26-0.344c-0.3,0-0.588,0.054-0.854,0.152
							C247.196,464.754,247.578,464.656,247.983,464.656 M251.772,469.098c0.115,0.305,0.181,0.634,0.181,0.979
							c0,1.534-1.244,2.777-2.778,2.777c-1.534,0-2.777-1.243-2.777-2.777c0-0.345,0.066-0.674,0.181-0.979
							c-0.62-0.382-1.035-1.064-1.035-1.846c0-1.197,0.971-2.168,2.168-2.168c0.565,0,1.078,0.218,1.463,0.572
							c0.386-0.354,0.899-0.572,1.464-0.572c1.197,0,2.168,0.971,2.168,2.168C252.807,468.034,252.392,468.716,251.772,469.098"/>
					</g>
					<g>
						<path style="fill:#FFFFFF;" d="M251.666,467.061c0,0.497-0.404,0.901-0.901,0.901c-0.497,0-0.901-0.404-0.901-0.901
							s0.404-0.901,0.901-0.901c0.101,0,0.197,0.017,0.287,0.047c-0.03,0.062-0.045,0.132-0.045,0.204
							c0,0.273,0.221,0.494,0.494,0.494c0.05,0,0.099-0.008,0.146-0.022C251.66,466.941,251.666,467,251.666,467.061"/>
					</g>
					<g>
						<path style="fill:#FFFFFF;" d="M248.255,467.061c0,0.376-0.305,0.681-0.681,0.681c-0.376,0-0.681-0.305-0.681-0.681
							s0.305-0.681,0.681-0.681c0.076,0,0.149,0.013,0.217,0.035c-0.023,0.047-0.034,0.1-0.034,0.155
							c0,0.206,0.167,0.374,0.374,0.374c0.038,0,0.075-0.006,0.11-0.017C248.25,466.97,248.255,467.015,248.255,467.061"/>
					</g>
					<g>
						<g>
							<g>
								<rect x="242.908" y="467.83" style="fill:#FFFFFF;" width="0.616" height="0.616"/>
							</g>
							<g>
								<rect x="254.827" y="467.83" style="fill:#FFFFFF;" width="0.616" height="0.616"/>
							</g>
							<g>
								<path style="fill:#FFFFFF;" d="M255.205,468.082h-0.14c0-3.248-2.642-5.89-5.89-5.89c-3.248,0-5.89,2.642-5.89,5.89h-0.14
									c0-1.611,0.627-3.125,1.766-4.264c1.139-1.139,2.653-1.766,4.264-1.766c1.611,0,3.125,0.627,4.264,1.766
									C254.578,464.957,255.205,466.471,255.205,468.082"/>
							</g>
						</g>
						<g>
							<rect x="248.868" y="461.814" style="fill:#FFFFFF;" width="0.616" height="0.616"/>
						</g>
						<g>
							<rect x="244.95" y="462.052" style="fill:#FFFFFF;" width="8.45" height="0.14"/>
						</g>
						<g>
							<path style="fill:#FFFFFF;" d="M245.174,462.15c0,0.108-0.088,0.196-0.196,0.196c-0.108,0-0.196-0.088-0.196-0.196
								c0-0.108,0.088-0.196,0.196-0.196C245.086,461.954,245.174,462.042,245.174,462.15"/>
						</g>
						<g>
							<path style="fill:#FFFFFF;" d="M253.596,462.15c0,0.108-0.088,0.196-0.196,0.196c-0.108,0-0.196-0.088-0.196-0.196
								c0-0.108,0.088-0.196,0.196-0.196C253.509,461.954,253.596,462.042,253.596,462.15"/>
						</g>
					</g>
				</g>
				<g>
					<path style="fill:#FFFFFF;" d="M314.356,473.409c0,1.559-2.364,1.559-2.364,0C311.993,471.851,314.356,471.851,314.356,473.409
						z"/>
				</g>
				<g>
					<g>
						<g>
							<path style="fill:#FFFFFF;" d="M161.739,466.549l1.772,6.088l1.855-6.088h2.215l-2.823,8.14h-2.33l-0.837-2.396l-0.722-2.708
								l-0.722,2.708l-0.837,2.396h-2.33l-2.839-8.14h2.231l1.855,6.088l1.756-6.088H161.739z"/>
						</g>
						<g>
							<path style="fill:#FFFFFF;" d="M176.713,466.549l1.772,6.088l1.855-6.088h2.215l-2.823,8.14h-2.33l-0.837-2.396l-0.722-2.708
								l-0.722,2.708l-0.837,2.396h-2.33l-2.839-8.14h2.231l1.855,6.088l1.756-6.088H176.713z"/>
						</g>
						<g>
							<path style="fill:#FFFFFF;" d="M191.687,466.549l1.772,6.088l1.855-6.088h2.215l-2.823,8.14h-2.33l-0.837-2.396l-0.722-2.708
								l-0.722,2.708l-0.837,2.396h-2.33l-2.839-8.14h2.231l1.855,6.088l1.756-6.088H191.687z"/>
						</g>
					</g>
					<g>
						<path style="fill:#FFFFFF;" d="M200.908,473.52c0,1.559-2.364,1.559-2.364,0C198.545,471.962,200.908,471.962,200.908,473.52z
							"/>
					</g>
					<g>
						<path style="fill:#FFFFFF;" d="M322.71,473.409c-0.935,0.919-1.919,1.28-3.117,1.28c-2.346,0-4.3-1.411-4.3-4.282
							s1.953-4.284,4.3-4.284c1.149,0,2.035,0.329,2.921,1.199l-1.264,1.329c-0.476-0.428-1.066-0.64-1.623-0.64
							c-1.346,0-2.33,0.985-2.33,2.396c0,1.542,1.05,2.362,2.297,2.362c0.64,0,1.28-0.18,1.772-0.672L322.71,473.409z"/>
					</g>
					<g>
						<path style="fill:#FFFFFF;" d="M331.805,470.472c0,2.33-1.591,4.217-4.217,4.217c-2.626,0-4.201-1.887-4.201-4.217
							c0-2.314,1.609-4.217,4.185-4.217C330.149,466.255,331.805,468.158,331.805,470.472z M325.389,470.472
							c0,1.231,0.739,2.38,2.199,2.38c1.46,0,2.199-1.149,2.199-2.38c0-1.215-0.854-2.396-2.199-2.396
							C326.144,468.077,325.389,469.258,325.389,470.472z"/>
					</g>
					<g>
						<path style="fill:#FFFFFF;" d="M338.572,474.689v-4.332c0-1.068-0.559-2.035-1.658-2.035c-1.082,0-1.722,0.967-1.722,2.035
							v4.332h-2.003v-8.107h1.855l0.148,0.985c0.426-0.82,1.362-1.116,2.133-1.116c0.969,0,1.937,0.394,2.396,1.51
							c0.723-1.149,1.658-1.478,2.708-1.478c2.297,0,3.43,1.412,3.43,3.84v4.365h-2.003v-4.365c0-1.066-0.442-1.97-1.526-1.97
							c-1.082,0-1.756,0.935-1.756,2.003v4.332H338.572z"/>
					</g>
				</g>
			</g>
		</g>
		<g style="opacity:0.61;">
			<g>
				<g>
					<path style="fill:#FFFFFF;" d="M345.988,431.299c-0.006-1.224-0.959-2.121-2.189-2.14c-0.924-0.014-0.832,0.12-0.834-0.867
						c-0.003-1.097-0.007-2.194,0.003-3.292c0.003-0.379-0.112-0.691-0.362-0.976c-2.342-2.668-4.678-5.342-7.019-8.011
						c-0.12-0.137-0.275-0.244-0.414-0.366c-6.214,0-12.427,0-18.641,0c-0.794,0.293-1.14,0.868-1.138,1.709
						c0.01,3.748,0.004,7.496,0.004,11.243c0,0.556-0.003,0.589-0.55,0.551c-1.497-0.102-2.516,0.986-2.497,2.492
						c0.044,3.476,0.013,6.953,0.014,10.429c0.001,1.58,0.867,2.443,2.45,2.449c0.582,0.002,0.582,0.002,0.582,0.6
						c0,2.219-0.001,4.438,0.001,6.657c0.001,1.192,0.58,1.771,1.768,1.771c8.013,0.001,16.027,0.001,24.04,0
						c1.168,0,1.755-0.583,1.757-1.745c0.002-2.256,0-4.512,0.001-6.768c0-0.512,0.002-0.511,0.52-0.515
						c0.271-0.002,0.541,0.008,0.809-0.058c0.996-0.246,1.69-1.044,1.694-2.069C346.003,438.696,346.005,434.997,345.988,431.299z
						 M317.537,417.162c5.337,0,10.674,0,16.01,0c0.548,0,0.554,0.007,0.554,0.561c0.001,2.243-0.001,4.486,0.001,6.73
						c0.001,0.811,0.249,1.059,1.06,1.059c1.91,0.001,3.821,0,5.731,0.001c0.458,0,0.479,0.021,0.481,0.483
						c0.003,0.887,0.002,1.775,0,2.662c-0.001,0.477-0.024,0.498-0.504,0.499c-3.895,0.001-7.79,0-11.684,0
						c-3.882,0-7.765,0-11.647,0c-0.55,0-0.552-0.001-0.552-0.561c-0.001-3.624-0.001-7.247,0-10.871
						C316.987,417.166,316.991,417.162,317.537,417.162z M340.822,451.579c-3.883,0.001-7.766,0-11.65,0c-3.871,0-7.742,0-11.613,0
						c-0.572,0-0.574-0.002-0.574-0.579c-0.001-1.997-0.001-3.994,0.001-5.991c0-0.464,0.023-0.486,0.478-0.487
						c7.803-0.001,15.607-0.001,23.41,0c0.478,0,0.499,0.02,0.499,0.503c0.002,1.997,0.001,3.994,0,5.991
						C341.375,451.574,341.37,451.579,340.822,451.579z"/>
				</g>
				<g>
					<g>
						<rect x="327.418" y="417.053" style="fill:#FFFFFF;" width="1.757" height="1.054"/>
					</g>
					<g>
						<rect x="325.662" y="418.107" style="fill:#FFFFFF;" width="1.757" height="1.054"/>
					</g>
					<g>
						<rect x="327.418" y="419.161" style="fill:#FFFFFF;" width="1.757" height="1.054"/>
					</g>
					<g>
						<rect x="325.662" y="420.215" style="fill:#FFFFFF;" width="1.757" height="1.054"/>
					</g>
					<g>
						<rect x="327.418" y="421.269" style="fill:#FFFFFF;" width="1.757" height="1.054"/>
					</g>
					<g>
						<rect x="325.662" y="422.323" style="fill:#FFFFFF;" width="1.757" height="1.054"/>
					</g>
					<g>
						<rect x="327.418" y="423.378" style="fill:#FFFFFF;" width="1.757" height="1.054"/>
					</g>
					<g>
						<rect x="325.662" y="424.432" style="fill:#FFFFFF;" width="1.757" height="1.054"/>
					</g>
					<g>
						<rect x="327.418" y="425.486" style="fill:#FFFFFF;" width="1.757" height="1.054"/>
					</g>
					<g>
						<rect x="325.662" y="426.54" style="fill:#FFFFFF;" width="1.757" height="1.054"/>
					</g>
					<g>
						<rect x="327.418" y="427.594" style="fill:#FFFFFF;" width="1.757" height="1.054"/>
					</g>
					<g>
						<rect x="325.662" y="428.648" style="fill:#FFFFFF;" width="1.757" height="1.054"/>
					</g>
				</g>
			</g>
			<g>
				<path style="fill:#FFFFFF;" d="M187.637,431.299c-0.006-1.224-0.959-2.121-2.189-2.14c-0.924-0.014-0.832,0.12-0.834-0.867
					c-0.003-1.097-0.007-2.194,0.003-3.292c0.003-0.379-0.112-0.691-0.362-0.976c-2.342-2.668-4.678-5.342-7.019-8.011
					c-0.12-0.137-0.275-0.244-0.414-0.366c-6.214,0-12.427,0-18.641,0c-0.794,0.293-1.14,0.868-1.138,1.709
					c0.01,3.748,0.004,7.496,0.004,11.243c0,0.556-0.003,0.589-0.55,0.551c-1.497-0.102-2.516,0.986-2.497,2.492
					c0.044,3.476,0.013,6.953,0.014,10.429c0.001,1.58,0.867,2.443,2.45,2.449c0.582,0.002,0.582,0.002,0.582,0.6
					c0,2.219-0.001,4.438,0.001,6.657c0.001,1.192,0.58,1.771,1.768,1.771c8.013,0.001,16.027,0.001,24.04,0
					c1.168,0,1.755-0.583,1.757-1.745c0.002-2.256,0-4.512,0.001-6.768c0-0.512,0.002-0.511,0.52-0.515
					c0.271-0.002,0.541,0.008,0.809-0.058c0.996-0.246,1.69-1.044,1.694-2.069C187.652,438.696,187.655,434.997,187.637,431.299z
					 M159.187,417.162c5.337,0,10.674,0,16.01,0c0.548,0,0.554,0.007,0.554,0.561c0.001,2.243-0.001,4.486,0.001,6.73
					c0.001,0.811,0.249,1.059,1.06,1.059c1.91,0.001,3.821,0,5.731,0.001c0.458,0,0.479,0.021,0.481,0.483
					c0.003,0.887,0.002,1.775,0,2.662c-0.001,0.477-0.024,0.498-0.504,0.499c-3.895,0.001-7.79,0-11.684,0
					c-3.882,0-7.765,0-11.647,0c-0.55,0-0.552-0.001-0.552-0.561c-0.001-3.624-0.001-7.247,0-10.871
					C158.636,417.166,158.64,417.162,159.187,417.162z M182.472,451.579c-3.883,0.001-7.766,0-11.65,0c-3.871,0-7.742,0-11.613,0
					c-0.572,0-0.574-0.002-0.574-0.579c-0.001-1.997-0.001-3.994,0.001-5.991c0-0.464,0.023-0.486,0.478-0.487
					c7.803-0.001,15.607-0.001,23.41,0c0.478,0,0.499,0.02,0.499,0.503c0.002,1.997,0.001,3.994,0,5.991
					C183.024,451.574,183.019,451.579,182.472,451.579z"/>
			</g>
			<g>
				<path style="fill:#FFFFFF;" d="M159.779,440.669v-7.897h2.779c0.375,0,0.726,0.061,1.053,0.182
					c0.327,0.121,0.612,0.292,0.855,0.513c0.242,0.221,0.434,0.483,0.573,0.789c0.14,0.305,0.21,0.642,0.21,1.009
					c0,0.375-0.07,0.715-0.21,1.02c-0.14,0.305-0.331,0.568-0.573,0.789c-0.243,0.221-0.528,0.392-0.855,0.513
					c-0.327,0.121-0.678,0.182-1.053,0.182h-1.29v2.901H159.779z M162.58,436.356c0.39,0,0.684-0.111,0.882-0.331
					c0.199-0.22,0.298-0.474,0.298-0.761c0-0.14-0.024-0.276-0.072-0.408c-0.048-0.132-0.121-0.248-0.221-0.347
					c-0.099-0.099-0.223-0.178-0.37-0.237c-0.147-0.059-0.32-0.089-0.518-0.089h-1.312v2.173H162.58z"/>
				<path style="fill:#FFFFFF;" d="M166.308,432.771h1.731l3.177,5.294h0.088l-0.088-1.522v-3.772h1.478v7.897h-1.566l-3.353-5.592
					h-0.088l0.088,1.522v4.07h-1.467V432.771z"/>
				<path style="fill:#FFFFFF;" d="M177.922,436.334h3.872c0.022,0.089,0.04,0.195,0.055,0.32c0.014,0.125,0.022,0.25,0.022,0.375
					c0,0.507-0.077,0.985-0.231,1.434c-0.154,0.449-0.397,0.849-0.728,1.202c-0.353,0.375-0.776,0.666-1.268,0.871
					c-0.493,0.206-1.055,0.309-1.688,0.309c-0.574,0-1.114-0.103-1.622-0.309c-0.507-0.206-0.948-0.492-1.323-0.86
					c-0.375-0.367-0.673-0.803-0.894-1.307c-0.221-0.504-0.331-1.053-0.331-1.649c0-0.595,0.11-1.145,0.331-1.649
					c0.221-0.504,0.518-0.939,0.894-1.307c0.375-0.367,0.816-0.654,1.323-0.86c0.507-0.206,1.048-0.309,1.622-0.309
					c0.64,0,1.211,0.11,1.715,0.331c0.504,0.221,0.935,0.526,1.296,0.915l-1.025,1.004c-0.258-0.272-0.544-0.48-0.861-0.623
					c-0.316-0.143-0.695-0.215-1.136-0.215c-0.361,0-0.703,0.065-1.026,0.193c-0.324,0.129-0.607,0.311-0.85,0.546
					c-0.242,0.235-0.436,0.52-0.579,0.855c-0.143,0.335-0.215,0.708-0.215,1.119c0,0.412,0.072,0.785,0.215,1.12
					c0.143,0.335,0.338,0.62,0.584,0.855c0.246,0.235,0.531,0.418,0.855,0.546c0.323,0.129,0.669,0.193,1.037,0.193
					c0.419,0,0.773-0.061,1.064-0.182c0.29-0.121,0.538-0.278,0.744-0.469c0.148-0.132,0.275-0.3,0.381-0.502
					c0.106-0.202,0.189-0.428,0.248-0.678h-2.482V436.334z"/>
			</g>
			<g>
				<path style="fill:#FFFFFF;" d="M224.019,431.299c-0.006-1.224-0.959-2.121-2.189-2.14c-0.924-0.014-0.832,0.12-0.834-0.867
					c-0.003-1.097-0.007-2.194,0.003-3.292c0.003-0.379-0.112-0.691-0.362-0.976c-2.342-2.668-4.678-5.342-7.019-8.011
					c-0.12-0.137-0.275-0.244-0.414-0.366c-6.214,0-12.427,0-18.641,0c-0.794,0.293-1.14,0.868-1.138,1.709
					c0.01,3.748,0.004,7.496,0.004,11.243c0,0.556-0.003,0.589-0.55,0.551c-1.497-0.102-2.516,0.986-2.497,2.492
					c0.044,3.476,0.013,6.953,0.014,10.429c0.001,1.58,0.867,2.443,2.45,2.449c0.582,0.002,0.582,0.002,0.582,0.6
					c0,2.219-0.001,4.438,0.001,6.657c0.001,1.192,0.58,1.771,1.768,1.771c8.013,0.001,16.027,0.001,24.04,0
					c1.168,0,1.755-0.583,1.757-1.745c0.002-2.256,0-4.512,0.001-6.768c0-0.512,0.002-0.511,0.52-0.515
					c0.271-0.002,0.541,0.008,0.809-0.058c0.997-0.246,1.69-1.044,1.694-2.069C224.034,438.696,224.036,434.997,224.019,431.299z
					 M195.568,417.162c5.337,0,10.674,0,16.01,0c0.548,0,0.554,0.007,0.554,0.561c0.001,2.243-0.001,4.486,0.001,6.73
					c0.001,0.811,0.249,1.059,1.06,1.059c1.91,0.001,3.821,0,5.731,0.001c0.458,0,0.479,0.021,0.481,0.483
					c0.003,0.887,0.002,1.775,0,2.662c-0.001,0.477-0.024,0.498-0.504,0.499c-3.895,0.001-7.79,0-11.684,0
					c-3.882,0-7.765,0-11.647,0c-0.55,0-0.552-0.001-0.552-0.561c-0.001-3.624-0.001-7.247,0-10.871
					C195.018,417.166,195.022,417.162,195.568,417.162z M218.854,451.579c-3.883,0.001-7.766,0-11.65,0c-3.871,0-7.742,0-11.613,0
					c-0.572,0-0.574-0.002-0.574-0.579c-0.001-1.997-0.001-3.994,0.001-5.991c0-0.464,0.023-0.486,0.478-0.487
					c7.803-0.001,15.607-0.001,23.41,0c0.478,0,0.499,0.02,0.499,0.503c0.002,1.997,0.001,3.994,0,5.991
					C219.406,451.574,219.401,451.579,218.854,451.579z"/>
			</g>
			<g>
				<path style="fill:#FFFFFF;" d="M205.111,432.771h1.699l2.967,7.897h-1.644l-0.651-1.886h-3.044l-0.651,1.886h-1.643
					L205.111,432.771z M206.997,437.415l-0.706-1.974l-0.287-0.96h-0.088l-0.287,0.96l-0.706,1.974H206.997z"/>
				<path style="fill:#FFFFFF;" d="M211.331,434.536c-0.125,0-0.245-0.024-0.359-0.072c-0.114-0.048-0.213-0.114-0.298-0.199
					c-0.084-0.084-0.151-0.182-0.198-0.292c-0.048-0.11-0.072-0.232-0.072-0.364s0.024-0.254,0.072-0.364
					c0.048-0.11,0.114-0.208,0.198-0.292c0.084-0.084,0.184-0.151,0.298-0.198c0.114-0.048,0.233-0.072,0.359-0.072
					c0.257,0,0.478,0.09,0.662,0.27c0.184,0.181,0.276,0.399,0.276,0.656s-0.092,0.476-0.276,0.656
					C211.809,434.446,211.589,434.536,211.331,434.536z M210.615,440.669v-5.404h1.445v5.404H210.615z"/>
			</g>
			<g>
				<path style="fill:#FFFFFF;" d="M261.044,431.299c-0.006-1.224-0.959-2.121-2.189-2.14c-0.924-0.014-0.832,0.12-0.834-0.867
					c-0.003-1.097-0.007-2.194,0.003-3.292c0.003-0.379-0.112-0.691-0.362-0.976c-2.342-2.668-4.678-5.342-7.019-8.011
					c-0.12-0.137-0.275-0.244-0.414-0.366c-6.214,0-12.427,0-18.641,0c-0.794,0.293-1.14,0.868-1.138,1.709
					c0.01,3.748,0.004,7.496,0.004,11.243c0,0.556-0.003,0.589-0.55,0.551c-1.497-0.102-2.516,0.986-2.497,2.492
					c0.044,3.476,0.013,6.953,0.014,10.429c0.001,1.58,0.867,2.443,2.45,2.449c0.582,0.002,0.582,0.002,0.582,0.6
					c0,2.219-0.001,4.438,0.001,6.657c0.001,1.192,0.58,1.771,1.768,1.771c8.013,0.001,16.027,0.001,24.04,0
					c1.168,0,1.755-0.583,1.757-1.745c0.002-2.256,0-4.512,0.001-6.768c0-0.512,0.002-0.511,0.52-0.515
					c0.271-0.002,0.541,0.008,0.809-0.058c0.996-0.246,1.69-1.044,1.694-2.069C261.059,438.696,261.061,434.997,261.044,431.299z
					 M232.593,417.162c5.337,0,10.674,0,16.01,0c0.548,0,0.554,0.007,0.554,0.561c0.001,2.243-0.001,4.486,0.001,6.73
					c0.001,0.811,0.249,1.059,1.06,1.059c1.91,0.001,3.821,0,5.731,0.001c0.458,0,0.479,0.021,0.481,0.483
					c0.003,0.887,0.002,1.775,0,2.662c-0.001,0.477-0.024,0.498-0.504,0.499c-3.895,0.001-7.79,0-11.684,0
					c-3.882,0-7.765,0-11.647,0c-0.55,0-0.552-0.001-0.552-0.561c-0.001-3.624-0.001-7.247,0-10.871
					C232.042,417.166,232.047,417.162,232.593,417.162z M255.878,451.579c-3.883,0.001-7.766,0-11.65,0c-3.871,0-7.742,0-11.613,0
					c-0.572,0-0.574-0.002-0.574-0.579c-0.001-1.997-0.001-3.994,0.001-5.991c0-0.464,0.023-0.486,0.478-0.487
					c7.803-0.001,15.607-0.001,23.41,0c0.478,0,0.499,0.02,0.499,0.503c0.002,1.997,0.001,3.994,0,5.991
					C256.431,451.574,256.426,451.579,255.878,451.579z"/>
			</g>
			<g>
				<path style="fill:#FFFFFF;" d="M236.361,440.845c-0.338,0-0.662-0.048-0.971-0.143c-0.309-0.095-0.592-0.239-0.849-0.43
					c-0.257-0.191-0.481-0.425-0.673-0.7c-0.191-0.276-0.342-0.597-0.452-0.965l1.401-0.551c0.103,0.397,0.283,0.726,0.54,0.987
					c0.257,0.261,0.596,0.392,1.015,0.392c0.154,0,0.303-0.02,0.447-0.061c0.143-0.04,0.272-0.099,0.386-0.176
					s0.204-0.175,0.27-0.292c0.066-0.118,0.099-0.254,0.099-0.408c0-0.147-0.026-0.279-0.077-0.397
					c-0.051-0.117-0.138-0.227-0.259-0.331c-0.121-0.103-0.28-0.202-0.475-0.298c-0.195-0.095-0.435-0.195-0.722-0.298l-0.485-0.176
					c-0.213-0.073-0.429-0.173-0.645-0.298c-0.217-0.125-0.413-0.276-0.59-0.452c-0.177-0.176-0.322-0.384-0.436-0.623
					c-0.114-0.239-0.171-0.509-0.171-0.81c0-0.309,0.06-0.597,0.182-0.866c0.121-0.268,0.294-0.503,0.518-0.706
					c0.224-0.202,0.492-0.36,0.805-0.474s0.66-0.171,1.042-0.171c0.397,0,0.74,0.053,1.031,0.16
					c0.291,0.107,0.537,0.243,0.739,0.408c0.202,0.165,0.366,0.348,0.491,0.546c0.125,0.199,0.217,0.386,0.276,0.563l-1.312,0.551
					c-0.074-0.221-0.208-0.419-0.402-0.596c-0.195-0.176-0.462-0.265-0.8-0.265c-0.324,0-0.592,0.075-0.805,0.226
					c-0.213,0.151-0.32,0.348-0.32,0.59c0,0.235,0.103,0.436,0.309,0.601c0.206,0.165,0.533,0.325,0.982,0.48l0.497,0.165
					c0.316,0.111,0.605,0.237,0.866,0.381c0.261,0.143,0.485,0.314,0.673,0.513c0.187,0.199,0.331,0.425,0.43,0.678
					c0.1,0.254,0.149,0.546,0.149,0.877c0,0.412-0.083,0.767-0.248,1.064c-0.165,0.298-0.377,0.542-0.634,0.734
					c-0.258,0.191-0.548,0.335-0.872,0.43C236.986,440.797,236.67,440.845,236.361,440.845z"/>
				<path style="fill:#FFFFFF;" d="M239.516,432.771h1.61l1.633,4.754l0.287,1.015h0.088l0.309-1.015l1.699-4.754h1.61l-2.879,7.897
					h-1.566L239.516,432.771z"/>
				<path style="fill:#FFFFFF;" d="M251.097,436.334h3.871c0.022,0.089,0.04,0.195,0.055,0.32c0.015,0.125,0.023,0.25,0.023,0.375
					c0,0.507-0.078,0.985-0.232,1.434c-0.154,0.449-0.397,0.849-0.728,1.202c-0.353,0.375-0.775,0.666-1.268,0.871
					c-0.493,0.206-1.055,0.309-1.688,0.309c-0.574,0-1.114-0.103-1.621-0.309c-0.507-0.206-0.949-0.492-1.324-0.86
					c-0.375-0.367-0.673-0.803-0.894-1.307c-0.22-0.504-0.331-1.053-0.331-1.649c0-0.595,0.11-1.145,0.331-1.649
					c0.221-0.504,0.518-0.939,0.894-1.307c0.375-0.367,0.816-0.654,1.324-0.86c0.507-0.206,1.047-0.309,1.621-0.309
					c0.64,0,1.211,0.11,1.715,0.331c0.504,0.221,0.936,0.526,1.296,0.915l-1.026,1.004c-0.257-0.272-0.544-0.48-0.861-0.623
					c-0.316-0.143-0.694-0.215-1.136-0.215c-0.36,0-0.702,0.065-1.026,0.193c-0.323,0.129-0.607,0.311-0.849,0.546
					c-0.243,0.235-0.436,0.52-0.579,0.855c-0.143,0.335-0.215,0.708-0.215,1.119c0,0.412,0.072,0.785,0.215,1.12
					c0.143,0.335,0.338,0.62,0.585,0.855c0.246,0.235,0.531,0.418,0.854,0.546c0.324,0.129,0.669,0.193,1.037,0.193
					c0.419,0,0.774-0.061,1.064-0.182c0.29-0.121,0.539-0.278,0.745-0.469c0.147-0.132,0.274-0.3,0.38-0.502
					c0.107-0.202,0.189-0.428,0.248-0.678h-2.482V436.334z"/>
			</g>
			<g>
				<path style="fill:#FFFFFF;" d="M297.3,431.299c-0.006-1.224-0.959-2.121-2.189-2.14c-0.924-0.014-0.832,0.12-0.834-0.867
					c-0.003-1.097-0.007-2.194,0.003-3.292c0.003-0.379-0.112-0.691-0.362-0.976c-2.342-2.668-4.678-5.342-7.019-8.011
					c-0.12-0.137-0.275-0.244-0.414-0.366c-6.214,0-12.427,0-18.641,0c-0.794,0.293-1.14,0.868-1.138,1.709
					c0.01,3.748,0.004,7.496,0.004,11.243c0,0.556-0.003,0.589-0.55,0.551c-1.497-0.102-2.516,0.986-2.497,2.492
					c0.044,3.476,0.013,6.953,0.014,10.429c0.001,1.58,0.867,2.443,2.45,2.449c0.582,0.002,0.582,0.002,0.582,0.6
					c0,2.219-0.001,4.438,0.001,6.657c0.001,1.192,0.58,1.771,1.768,1.771c8.013,0.001,16.027,0.001,24.04,0
					c1.168,0,1.755-0.583,1.757-1.745c0.002-2.256,0-4.512,0.001-6.768c0-0.512,0.002-0.511,0.52-0.515
					c0.271-0.002,0.541,0.008,0.809-0.058c0.996-0.246,1.69-1.044,1.694-2.069C297.315,438.696,297.318,434.997,297.3,431.299z
					 M268.85,417.162c5.337,0,10.674,0,16.01,0c0.548,0,0.554,0.007,0.554,0.561c0.001,2.243-0.001,4.486,0.001,6.73
					c0.001,0.811,0.249,1.059,1.06,1.059c1.91,0.001,3.821,0,5.731,0.001c0.458,0,0.479,0.021,0.481,0.483
					c0.003,0.887,0.002,1.775,0,2.662c-0.001,0.477-0.024,0.498-0.504,0.499c-3.895,0.001-7.79,0-11.684,0
					c-3.882,0-7.765,0-11.647,0c-0.55,0-0.552-0.001-0.552-0.561c-0.001-3.624-0.001-7.247,0-10.871
					C268.299,417.166,268.303,417.162,268.85,417.162z M292.135,451.579c-3.883,0.001-7.766,0-11.65,0c-3.871,0-7.742,0-11.613,0
					c-0.572,0-0.574-0.002-0.574-0.579c-0.001-1.997-0.001-3.994,0.001-5.991c0-0.464,0.023-0.486,0.478-0.487
					c7.803-0.001,15.607-0.001,23.41,0c0.478,0,0.499,0.02,0.499,0.503c0.001,1.997,0.001,3.994,0,5.991
					C292.687,451.574,292.682,451.579,292.135,451.579z"/>
			</g>
			<g>
				<path style="fill:#FFFFFF;" d="M272.966,434.183v1.831h3.165v1.412h-3.165v1.831h3.518v1.412h-5.007v-7.897h5.007v1.412H272.966
					z"/>
				<path style="fill:#FFFFFF;" d="M277.852,440.669v-7.897h2.779c0.375,0,0.726,0.061,1.053,0.182
					c0.327,0.121,0.612,0.292,0.855,0.513c0.243,0.221,0.434,0.483,0.574,0.789c0.14,0.305,0.209,0.642,0.209,1.009
					c0,0.375-0.07,0.715-0.209,1.02c-0.14,0.305-0.331,0.568-0.574,0.789c-0.243,0.221-0.528,0.392-0.855,0.513
					c-0.327,0.121-0.678,0.182-1.053,0.182h-1.29v2.901H277.852z M280.653,436.356c0.389,0,0.684-0.111,0.882-0.331
					c0.199-0.22,0.298-0.474,0.298-0.761c0-0.14-0.024-0.276-0.072-0.408c-0.048-0.132-0.121-0.248-0.221-0.347
					c-0.099-0.099-0.222-0.178-0.37-0.237c-0.147-0.059-0.32-0.089-0.518-0.089h-1.312v2.173H280.653z"/>
				<path style="fill:#FFFFFF;" d="M286.797,440.845c-0.338,0-0.662-0.048-0.971-0.143c-0.309-0.095-0.592-0.239-0.849-0.43
					c-0.257-0.191-0.482-0.425-0.673-0.7c-0.191-0.276-0.342-0.597-0.452-0.965l1.401-0.551c0.103,0.397,0.283,0.726,0.541,0.987
					c0.257,0.261,0.595,0.392,1.015,0.392c0.154,0,0.303-0.02,0.447-0.061c0.143-0.04,0.272-0.099,0.386-0.176
					c0.114-0.077,0.204-0.175,0.27-0.292c0.066-0.118,0.1-0.254,0.1-0.408c0-0.147-0.026-0.279-0.077-0.397
					c-0.051-0.117-0.138-0.227-0.259-0.331c-0.121-0.103-0.279-0.202-0.474-0.298c-0.195-0.095-0.436-0.195-0.723-0.298
					l-0.485-0.176c-0.213-0.073-0.428-0.173-0.645-0.298c-0.217-0.125-0.414-0.276-0.59-0.452c-0.176-0.176-0.322-0.384-0.436-0.623
					c-0.114-0.239-0.171-0.509-0.171-0.81c0-0.309,0.061-0.597,0.182-0.866c0.121-0.268,0.294-0.503,0.518-0.706
					c0.224-0.202,0.493-0.36,0.805-0.474c0.312-0.114,0.66-0.171,1.042-0.171c0.397,0,0.741,0.053,1.031,0.16
					c0.29,0.107,0.537,0.243,0.739,0.408c0.202,0.165,0.365,0.348,0.491,0.546c0.125,0.199,0.217,0.386,0.276,0.563l-1.312,0.551
					c-0.074-0.221-0.208-0.419-0.403-0.596c-0.195-0.176-0.462-0.265-0.799-0.265c-0.324,0-0.592,0.075-0.805,0.226
					c-0.213,0.151-0.32,0.348-0.32,0.59c0,0.235,0.103,0.436,0.309,0.601c0.206,0.165,0.533,0.325,0.982,0.48l0.496,0.165
					c0.316,0.111,0.605,0.237,0.866,0.381c0.261,0.143,0.485,0.314,0.673,0.513c0.187,0.199,0.331,0.425,0.43,0.678
					c0.099,0.254,0.149,0.546,0.149,0.877c0,0.412-0.083,0.767-0.248,1.064c-0.165,0.298-0.377,0.542-0.634,0.734
					c-0.258,0.191-0.548,0.335-0.872,0.43C287.422,440.797,287.105,440.845,286.797,440.845z"/>
			</g>
			<g>
				<path style="fill:#FFFFFF;" d="M321.394,439.168l4.004-4.985h-3.827v-1.412h5.559v1.5l-3.96,4.985h4.004v1.412h-5.779V439.168z"
					/>
				<path style="fill:#FFFFFF;" d="M328.409,432.771h1.489v7.897h-1.489V432.771z"/>
				<path style="fill:#FFFFFF;" d="M331.486,440.669v-7.897h2.779c0.375,0,0.726,0.061,1.053,0.182
					c0.327,0.121,0.612,0.292,0.855,0.513s0.434,0.483,0.574,0.789c0.14,0.305,0.209,0.642,0.209,1.009
					c0,0.375-0.07,0.715-0.209,1.02c-0.14,0.305-0.331,0.568-0.574,0.789c-0.243,0.221-0.528,0.392-0.855,0.513
					c-0.327,0.121-0.678,0.182-1.053,0.182h-1.29v2.901H331.486z M334.288,436.356c0.389,0,0.684-0.111,0.882-0.331
					c0.199-0.22,0.298-0.474,0.298-0.761c0-0.14-0.024-0.276-0.072-0.408c-0.048-0.132-0.121-0.248-0.221-0.347
					c-0.099-0.099-0.222-0.178-0.37-0.237c-0.147-0.059-0.32-0.089-0.518-0.089h-1.312v2.173H334.288z"/>
			</g>
		</g>
		<g style="opacity:0.61;">
			<path style="fill:#FFFFFF;" d="M300.133,433.27h9.067v2.242h-9.067V433.27z M300.133,437.136h9.067v2.243h-9.067V437.136z"/>
		</g>
	</g>
	<g style="opacity:0.61;">
		<path style="fill:#FFFFFF;" d="M156.756,478.878h1.607c1.263,0,2.114,0.812,2.114,1.974c0,1.161-0.851,1.973-2.114,1.973h-1.607
			V478.878z M158.34,482.464c1.049,0,1.725-0.665,1.725-1.612c0-0.947-0.677-1.613-1.725-1.613h-1.167v3.225H158.34z"/>
		<path style="fill:#FFFFFF;" d="M165.139,480.851c0-1.15,0.879-2.007,2.075-2.007c1.184,0,2.069,0.851,2.069,2.007
			c0,1.156-0.885,2.007-2.069,2.007C166.019,482.858,165.139,482.002,165.139,480.851z M168.866,480.851
			c0-0.942-0.705-1.635-1.652-1.635c-0.953,0-1.663,0.693-1.663,1.635c0,0.941,0.71,1.635,1.663,1.635
			C168.162,482.486,168.866,481.793,168.866,480.851z"/>
		<path style="fill:#FFFFFF;" d="M179.596,478.878l-1.331,3.947h-0.44l-1.156-3.366l-1.161,3.366h-0.434l-1.331-3.947h0.429
			l1.139,3.394l1.178-3.394h0.389l1.161,3.411l1.156-3.411H179.596z"/>
		<path style="fill:#FFFFFF;" d="M187.731,478.878v3.947h-0.344l-2.537-3.202v3.202h-0.417v-3.947h0.344l2.543,3.203v-3.203H187.731
			z"/>
		<path style="fill:#FFFFFF;" d="M193.093,478.878h0.417v3.586h2.21v0.361h-2.627V478.878z"/>
		<path style="fill:#FFFFFF;" d="M200.061,480.851c0-1.15,0.879-2.007,2.075-2.007c1.184,0,2.069,0.851,2.069,2.007
			c0,1.156-0.885,2.007-2.069,2.007C200.941,482.858,200.061,482.002,200.061,480.851z M203.788,480.851
			c0-0.942-0.705-1.635-1.652-1.635c-0.953,0-1.663,0.693-1.663,1.635c0,0.941,0.71,1.635,1.663,1.635
			C203.083,482.486,203.788,481.793,203.788,480.851z"/>
		<path style="fill:#FFFFFF;" d="M211.636,481.77h-2.199l-0.474,1.054h-0.434l1.804-3.947h0.412l1.804,3.947h-0.44L211.636,481.77z
			 M211.484,481.432l-0.947-2.12l-0.947,2.12H211.484z"/>
		<path style="fill:#FFFFFF;" d="M217.28,478.878h1.607c1.263,0,2.114,0.812,2.114,1.974c0,1.161-0.851,1.973-2.114,1.973h-1.607
			V478.878z M218.864,482.464c1.049,0,1.725-0.665,1.725-1.612c0-0.947-0.677-1.613-1.725-1.613h-1.167v3.225H218.864z"/>
		<path style="fill:#FFFFFF;" d="M234.041,481.77h-2.199l-0.474,1.054h-0.434l1.804-3.947h0.412l1.804,3.947h-0.44L234.041,481.77z
			 M233.889,481.432l-0.947-2.12l-0.947,2.12H233.889z"/>
		<path style="fill:#FFFFFF;" d="M239.685,478.878h0.417v3.586h2.21v0.361h-2.627V478.878z"/>
		<path style="fill:#FFFFFF;" d="M247.082,478.878h0.417v3.586h2.21v0.361h-2.627V478.878z"/>
		<path style="fill:#FFFFFF;" d="M260.449,479.239v1.551h2.041v0.361h-2.041v1.675h-0.417v-3.947h2.706v0.361H260.449z"/>
		<path style="fill:#FFFFFF;" d="M267.678,478.878h0.417v3.947h-0.417V478.878z"/>
		<path style="fill:#FFFFFF;" d="M273.456,478.878h0.417v3.586h2.21v0.361h-2.627V478.878z"/>
		<path style="fill:#FFFFFF;" d="M283.644,482.464v0.361h-2.791v-3.947h2.706v0.361h-2.289v1.404h2.041v0.355h-2.041v1.466H283.644z
			"/>
		<path style="fill:#FFFFFF;" d="M294.672,479.239v1.551h2.041v0.361h-2.041v1.675h-0.417v-3.947h2.706v0.361H294.672z"/>
		<path style="fill:#FFFFFF;" d="M301.5,480.851c0-1.15,0.879-2.007,2.075-2.007c1.184,0,2.069,0.851,2.069,2.007
			c0,1.156-0.885,2.007-2.069,2.007C302.379,482.858,301.5,482.002,301.5,480.851z M305.226,480.851
			c0-0.942-0.705-1.635-1.652-1.635c-0.953,0-1.663,0.693-1.663,1.635c0,0.941,0.71,1.635,1.663,1.635
			C304.522,482.486,305.226,481.793,305.226,480.851z"/>
		<path style="fill:#FFFFFF;" d="M313.351,482.825l-0.902-1.269c-0.102,0.011-0.203,0.017-0.316,0.017h-1.06v1.252h-0.417v-3.947
			h1.477c1.004,0,1.613,0.507,1.613,1.353c0,0.62-0.327,1.054-0.902,1.24l0.964,1.353H313.351z M313.328,480.231
			c0-0.632-0.417-0.992-1.207-0.992h-1.048v1.979h1.048C312.911,481.218,313.328,480.851,313.328,480.231z"/>
		<path style="fill:#FFFFFF;" d="M322.907,478.878v3.947h-0.4v-3.158l-1.551,2.656h-0.197l-1.551-2.639v3.14h-0.4v-3.947h0.344
			l1.714,2.926l1.697-2.926H322.907z"/>
		<path style="fill:#FFFFFF;" d="M330.744,481.77h-2.199l-0.473,1.054h-0.434l1.804-3.947h0.411l1.804,3.947h-0.44L330.744,481.77z
			 M330.592,481.432l-0.947-2.12l-0.947,2.12H330.592z"/>
		<path style="fill:#FFFFFF;" d="M336.957,479.239h-1.387v-0.361h3.192v0.361h-1.387v3.586h-0.417V479.239z"/>
		<path style="fill:#FFFFFF;" d="M343.063,482.346l0.164-0.321c0.282,0.276,0.784,0.479,1.302,0.479c0.739,0,1.06-0.31,1.06-0.699
			c0-1.083-2.43-0.417-2.43-1.877c0-0.581,0.451-1.083,1.455-1.083c0.446,0,0.908,0.13,1.224,0.35l-0.141,0.333
			c-0.338-0.22-0.733-0.327-1.083-0.327c-0.722,0-1.043,0.321-1.043,0.716c0,1.083,2.43,0.429,2.43,1.866
			c0,0.581-0.462,1.077-1.472,1.077C343.937,482.858,343.356,482.65,343.063,482.346z"/>
	</g>
</g>
<g>
</g>
<g>
	<path style="fill:#00A550;" d="M240.087,26.439c27.069-0.035,49.963,0.914,72.826,2.525c20.216,1.424,40.363,3.541,60.335,7.063
		c18.128,3.196,35.985,7.368,52.96,14.759c9.294,4.047,15.097,10.675,16.772,20.854c1.249,7.589,2.007,15.222,2.555,22.877
		c0.7,9.792,1.547,19.59,1.458,29.413c-0.154,16.819-0.931,33.619-1.917,50.412c-0.821,13.975-1.863,27.932-3.184,41.867
		c-0.985,10.393-1.79,20.83-3.756,31.084c-1.591,8.296-4.199,16.37-6.707,24.444c-8.324,26.791-19.155,52.485-33.426,76.69
		c-16.159,27.408-36.389,51.36-60.841,71.703c-20.46,17.022-42.729,31.359-66.155,43.926c-6.307,3.383-12.773,6.448-19.4,9.171
		c-1.14,0.468-2.096,0.429-3.217-0.014c-17.76-7.019-34.265-16.372-50.082-26.984c-21.198-14.222-40.916-30.279-59.265-48.026
		c-17.523-16.947-31.585-36.479-43.172-57.845c-15.591-28.747-26.164-59.332-33.287-91.182c-4.495-20.099-6.902-40.466-8.184-60.994
		c-0.834-13.357-1.256-26.721-1.371-40.103c-0.113-13.102,0.11-26.195,0.588-39.285c0.43-11.787,1.047-23.568,2.246-35.303
		c0.737-7.211,3.061-13.774,9.137-18.396c1.531-1.165,3.198-2.106,4.949-2.908c12.501-5.727,25.589-9.617,38.936-12.821
		c18.361-4.409,36.953-7.283,55.717-9.195c14.939-1.522,29.911-2.488,44.915-3.071C221.085,26.65,232.654,26.43,240.087,26.439z"/>
	<path style="fill:#FEFEFE;" d="M297.889,96.384c-0.552,2.174-0.548,4.457-1.295,6.592c-0.31,0.727-1.035,0.595-1.597,0.718
		c-7.187,1.565-14.175,3.718-20.924,6.677c-8.296,3.637-15.712,8.611-22.562,14.486c-0.552,0.473-1.048,1.047-1.855,1.093
		c-0.303-0.089-0.421-0.308-0.43-0.607c0.379-1.219,1.26-2.128,1.974-3.132c3.151-4.431,4.682-9.453,4.722-14.787
		c0.035-4.635-1.064-9.181-2.496-13.61c-1.877-5.803-3.97-11.535-5.7-17.386c-1.076-3.637-1.836-7.338-2.244-11.111
		c-0.043-0.393-0.1-0.787-0.201-1.168c-0.096-0.363-0.07-0.903-0.576-0.911c-0.502-0.008-0.533,0.515-0.594,0.887
		c-1.334,8.108-4.239,15.81-6.132,23.775c-0.996,4.192-1.774,8.426-1.938,12.704c-0.235,6.135,0.925,12.028,4.326,17.308
		c0.391,0.607,0.899,1.19,0.695,2.009c-0.621,0.588-1.045-0.022-1.446-0.303c-11.4-7.975-24.147-12.799-37.548-16.107
		c-0.778-0.192-1.74-0.128-2.153-1.088c-0.351-2.24-0.702-4.48-1.052-6.719c-0.689-1.229-0.718-2.467-0.051-3.715
		c0.191-2.744,0.477-5.477,0.976-8.185c-0.302-1.364-0.049-2.592,0.898-3.648c1.142-2.652,2.284-5.305,3.425-7.957
		c0.078-1.428,0.905-2.411,1.945-3.266c2.049-2.462,4.099-4.923,6.148-7.385c0.674-1.083,1.439-2.065,2.722-2.48
		c2.424-1.669,4.847-3.339,7.271-5.008c0.804-1.087,1.859-1.706,3.232-1.73c2.91-1.064,5.82-2.129,8.73-3.193
		c1.076-0.82,2.288-1.117,3.622-0.941c2.76-0.329,5.521-0.659,8.281-0.988c1.239-0.796,2.477-0.778,3.714,0.005
		c3.134,0.348,6.268,0.697,9.401,1.045c1.324-0.203,2.568-0.081,3.599,0.894c2.761,1.024,5.523,2.048,8.284,3.072
		c1.401,0.014,2.502,0.609,3.341,1.717c2.626,1.829,5.252,3.659,7.877,5.488c1.119,0.601,2.142,1.307,2.733,2.487
		c1.801,2.169,3.602,4.339,5.403,6.508c1.127,0.774,1.803,1.831,2.002,3.188c1.227,2.791,2.455,5.583,3.682,8.374
		c0.965,1.031,1.223,2.237,0.884,3.589c0.579,3.01,0.843,6.055,1.04,9.108C298.548,93.939,298.589,95.175,297.889,96.384z"/>
	<path d="M199.914,102.425c5.383,1.465,10.796,2.823,16.049,4.734c8.085,2.941,15.809,6.599,22.942,11.444
		c0.684,0.464,1.353,0.95,2.029,1.425c0.961-0.068,1.376,0.692,1.821,1.298c1.287,1.751,3.014,3.025,4.628,4.423
		c0.309,0.267,0.67,0.41,1.085,0.374c0.396-0.136,0.834-0.091,1.212-0.297c6.076-5.23,12.46-10.001,19.639-13.662
		c8.646-4.409,17.77-7.343,27.272-9.187c3.354-0.529,6.708-1.058,10.061-1.587c0.535-0.31,1.181,0.073,1.71-0.275
		c0.446-0.024,0.892-0.047,1.339-0.071c0.546-0.292,1.191,0.068,1.732-0.261c0.564-0.024,1.129-0.048,1.693-0.071
		c0.789-0.328,1.656,0.08,2.445-0.259c0.437-0.031,0.875-0.062,1.312-0.093c1.671-0.36,3.391,0.171,5.057-0.282
		c5.32,0.003,10.64,0.006,15.96,0.009c1.437,0.412,2.93-0.066,4.371,0.275c0.912,0.025,1.823,0.051,2.735,0.076
		c0.88,0.385,1.843-0.072,2.727,0.272c0.755,0.027,1.51,0.055,2.265,0.082c0.685,0.324,1.453-0.05,2.141,0.254
		c0.643,0.028,1.285,0.056,1.928,0.084c0.569,0.305,1.228-0.028,1.8,0.254c0.553,0.026,1.105,0.052,1.658,0.077
		c0.538,0.333,1.183-0.032,1.727,0.264c0.449,0.023,0.897,0.045,1.346,0.068c0.528,0.35,1.173-0.033,1.708,0.275
		c0.438,0.02,0.875,0.04,1.313,0.059c0.531,0.356,1.18-0.025,1.72,0.274c2.569,0.353,5.137,0.711,7.707,1.055
		c0.395,0.053,0.965,0.069,0.98,0.471c0.084,2.277,2.082,2.478,3.489,2.991c1.76,0.641,2.795,1.326,2.026,3.328
		c0.46,0.611,0.584,0.633,2.061,0.364c1.152-0.19,2.314-0.336,3.453-0.586c0.811-0.178,1.033-0.019,0.807,0.819
		c-0.247,0.914-0.377,1.86-0.558,2.793c-0.194,0.69-0.424,1.407,0.784,1.057c1.069,0.1,1.929-0.54,2.874-0.854
		c0.985-0.327,1.191-0.236,0.939,0.863c-1.561,6.793-3.042,13.604-4.57,20.404c-2.212,9.839-4.434,19.676-6.667,29.511
		c-3.072,13.534-6.178,27.06-9.231,40.598c-2.611,11.579-5.16,23.172-7.752,34.755c-2.605,11.64-5.221,23.278-7.851,34.913
		c-1.681,7.437-3.401,14.866-5.086,22.303c-0.1,0.443-0.006,0.948-0.705,0.857c-0.757-0.371-1.608,0.069-2.368-0.272
		c-0.654-0.026-1.307-0.052-1.961-0.077c-0.8-0.34-1.676,0.062-2.478-0.254c-0.869-0.029-1.737-0.057-2.606-0.086
		c-1.018-0.359-2.104,0.086-3.123-0.259c-1.016-0.024-2.032-0.047-3.049-0.071c-1.235-0.382-2.528,0.082-3.765-0.262
		c-1.546-0.032-3.093-0.065-4.639-0.097c-1.077-0.265-2.172-0.055-3.257-0.122c-1.322-0.062-2.65,0.13-3.966-0.109
		c-4.164-0.001-8.329-0.002-12.493-0.003c-1.187,0.234-2.388,0.054-3.58,0.111c-0.96,0.061-1.933-0.139-2.884,0.135
		c-1.235,0.028-2.47,0.055-3.704,0.083c-1.005,0.344-2.079-0.116-3.082,0.265c-0.78,0.024-1.56,0.047-2.34,0.071
		c-0.766,0.339-1.622-0.105-2.383,0.274c-0.562,0.023-1.125,0.046-1.687,0.069c-0.57,0.286-1.229-0.051-1.796,0.256
		c-4.276,0.407-8.516,1.037-12.736,1.846c-2.48,0.475-4.931,1.032-7.333,1.798c-0.766,0.244-1.266-0.037-1.828-0.491
		c-3.288-2.654-6.339-5.539-8.987-8.846c-0.835-1.042-1.852-1.919-2.622-3.041c-0.579-0.842-1.319-1.005-2.175-0.007
		c-3.706,4.317-7.496,8.563-11.239,12.848c-0.454,0.52-0.841,0.66-1.585,0.482c-4.941-1.182-9.865-2.531-14.874-3.307
		c-4.128-0.64-8.191-1.738-12.389-1.938c-0.604-0.029-1.2-0.214-1.799-0.327c-0.617-0.411-1.356,0.031-1.986-0.284
		c-0.238-0.026-0.476-0.052-0.714-0.078c-0.53-0.346-1.176,0.033-1.713-0.272c-0.443-0.024-0.887-0.048-1.33-0.072
		c-0.537-0.335-1.182,0.031-1.726-0.264c-0.555-0.026-1.109-0.051-1.664-0.077c-0.658-0.349-1.41,0.05-2.072-0.262
		c-0.677-0.019-1.355-0.038-2.032-0.058c-0.983-0.415-2.047,0.061-3.037-0.274c-1.238-0.031-2.476-0.061-3.714-0.092
		c-3.277-0.219-6.554-0.219-9.831,0c-1.12,0.029-2.24,0.057-3.359,0.086c-0.777,0.323-1.636-0.101-2.409,0.262
		c-0.557,0.025-1.114,0.05-1.671,0.076c-0.568,0.288-1.226-0.053-1.791,0.259c-6.423,0.624-12.656,2.094-18.804,4.335
		c-2.245-8.82-4.516-17.532-6.667-26.274c-1.412-5.737-2.513-11.552-4.009-17.266c-1.383-5.279-2.556-10.606-3.721-15.928
		c-0.999-4.564-2.282-9.056-3.142-13.664c-0.935-5.008-2.177-9.976-3.368-14.935c-2.532-10.539-4.833-21.13-7.171-31.71
		c-0.92-4.165-2.023-8.302-2.639-12.55c-0.508-3.504-1.567-6.925-2.295-10.402c-0.817-3.906-1.609-7.825-2.48-11.712
		c-1.058-4.723-1.939-9.483-3.03-14.198c-0.967-4.177-1.739-8.395-2.278-12.651c-0.121-0.954-0.62-1.783-0.69-2.768
		c-0.096-1.358,0.369-2.026,1.744-2.007c1.449-0.361,2.949,0.125,4.395-0.268c0.921-1.336-0.361-2.41-0.54-3.598
		c-0.241-1.603,0.069-2.201,1.663-2.215c0.945-0.008,1.849-0.374,2.825-0.341c1.842,0.062,2.232-0.527,1.669-2.307
		c-0.067-0.213-0.205-0.402-0.288-0.611c-0.485-1.217-0.693-2.156,1.107-2.562c2.633-0.595,4.945-2.311,7.766-2.334
		c0.535-0.31,1.181,0.073,1.71-0.275c1.575-0.135,3.151-0.27,4.726-0.406c0.653-0.322,1.404,0.09,2.051-0.272
		c0.354-0.026,0.707-0.053,1.061-0.079c0.67-0.179,1.341-0.169,2.013-0.006c1.34-0.297,2.703-0.296,4.064-0.318
		c1.336-0.362,2.728,0.121,4.061-0.271c2.365-0.029,4.73-0.057,7.094-0.086c1.59-0.176,3.179-0.186,4.769,0.005
		c2.26,0.019,4.521,0.037,6.781,0.056c1.666,0.453,3.386-0.079,5.057,0.282c0.799,0.111,1.599,0.222,2.398,0.333
		c0.784-0.165,1.567-0.178,2.35,0.007c0.347,0.027,0.693,0.053,1.04,0.08c0.652,0.357,1.403-0.052,2.059,0.267
		c1.464,0.138,2.928,0.275,4.391,0.413c0.524,0.338,1.163-0.043,1.691,0.271c5.049,0.843,10.142,1.432,15.111,2.725
		C199.104,102.517,199.52,102.428,199.914,102.425z"/>
	<path style="fill:#FEFEFE;" d="M396.514,319.162c-0.304,0.723-0.866,1.218-1.022,1.964c-0.157,0.75-0.741,1-1.525,1.03
		c-6.784,0.262-12.109,3.184-15.867,8.863c-0.407,0.615-0.889,0.967-1.571,1.145c-0.708,0.184-1.407,0.407-2.107,0.621
		c-3.396,1.038-3.471,1.042-3.587-2.548c-0.152-4.745,0.099-9.479,0.834-14.178c0.06-0.386,0.071-0.78,0.109-1.211
		c-0.635,0.06-0.62,0.59-0.788,0.939c-2.483,5.176-4.936,10.367-7.445,15.531c-0.461,0.949-0.832,1.892-1.869,2.6
		c-1.466,1.001-1.244,1.858,0.324,2.779c6.22,3.654,12.441,7.308,18.659,10.965c0.42,0.247,0.822,0.526,1.431,0.917
		c-1.996,1.167-3.834,2.224-5.652,3.315c-0.651,0.391-1.05-0.001-1.494-0.352c-5.008-3.963-10.392-7.369-15.815-10.721
		c-0.983-0.608-1.607-0.791-2.168,0.469c-0.409,0.918-1.112,1.702-1.572,2.602c-1.05,2.056-1.978,0.214-2.941-0.059
		c-1.327-0.377-0.848-1.1-0.347-1.866c0.49-0.749,0.909-1.546,1.412-2.414c-1.116-0.257-1.901,0.418-2.763,0.678
		c-2.847,0.858-4.679,0.055-5.863-2.668c-1.942-4.465-1.051-8.308,2.758-11.533c2.626-2.223,5.671-3.616,9.023-4.396
		c0.861-0.2,1.281-0.081,1.353,0.824c0.004,0.054,0.038,0.106,0.053,0.16c0.696,2.487,0.68,2.442-1.711,3.268
		c-3.083,1.065-5.797,2.664-6.739,6.054c-0.72,2.592,0.277,3.656,2.884,3.361c0.728-0.083,1.448-0.233,2.175-0.335
		c1.486-0.209,2.455-0.965,3.273-2.296c5.796-9.428,10.034-19.63,14.704-29.609c1.298-2.773,3.232-4.505,5.771-5.838
		c-3.233-5.946-2.582-7.758,4.581-12.698c-0.735-0.609-1.655-0.735-2.486-0.953c-1.036-0.271-1.224-0.697-0.836-1.653
		c0.998-2.455,1.59-5.031,2.138-7.617c0.106-0.501,0.221-0.992,0.018-1.62c-0.891,0.624-1.724,1.275-2.62,1.821
		c-1.984,1.209-3.535,1.041-5.24-0.489c-3.586-3.217-4.343-7.591-2.002-11.789c1.839-3.299,4.567-5.69,7.803-7.567
		c0.741-0.429,1.119-0.26,1.431,0.448c0.113,0.256,0.252,0.511,0.426,0.728c0.954,1.184,1.151,2.006-0.557,2.872
		c-2.271,1.152-3.832,3.116-4.706,5.554c-0.17,0.473-0.337,0.97-0.371,1.465c-0.217,3.105,1.383,4.254,4.167,3.098
		c2.296-0.954,3.757-2.293,4.376-4.978c2.267-9.829,4.155-19.728,5.863-29.661c1.432-8.332,2.739-16.689,3.93-25.059
		c0.778-5.467,1.247-10.979,1.858-16.47c0.567-5.1,1.232-10.192,1.68-15.303c0.537-6.126,0.856-12.27,1.327-18.402
		c1.078-14.026,1.189-28.084,1.333-42.138c0.024-2.318,1.526-1.477,2.636-1.63c1.507-0.208,1.172,0.765,1.197,1.694
		c0.107,4.04-1.019,3.333,3.405,3.477c6.657,0.217,13.32,0.289,19.98,0.383c0.893,0.013,1.25,0.246,1.043,1.169
		c-0.097,0.435-0.117,0.905-0.074,1.35c0.12,1.231-0.401,1.662-1.622,2.011c-5.604,1.599-8.24,5.902-8.754,11.26
		c-0.287,2.998-2.052,4.26-3.945,5.788c-0.8,0.646-0.981-0.167-1.218-0.563c-1.501-2.515-2.957-5.056-4.428-7.589
		c-0.167-0.288-0.329-0.578-0.573-1.007c-1.273,2.437-1.923,4.919-2.552,7.419c-0.2,0.796,0.062,2.041-1.466,1.949
		c-0.394-0.024-0.445,0.518-0.369,0.818c0.368,1.464,0.155,2.926-0.065,4.361c-0.163,1.063,0.282,1.207,1.147,1.258
		c7.095,0.414,14.19,0.847,21.282,1.308c0.617,0.04,1.64-0.317,1.778,0.431c0.191,1.038,0.502,2.322-0.422,3.199
		c-1.323,1.256-2.558,2.449-4.834,1.846c-3.036-0.805-6.212-1.082-9.327-1.59c-1.42-0.232-3.019,0.988-3.382,2.61
		c-0.381,1.703,0.912,1.951,2.049,2.298c1.433,0.437,1.438,0.422,1.353,3.24c0.09,0.047,0.199,0.153,0.267,0.131
		c3.554-1.138,5.74,0.085,6.685,3.749c1.655,6.417-3.891,12.57-10.349,11.483c-4.537-0.764-7.428-5.508-6.154-10.143
		c0.208-0.756,0.433-1.556,0.864-2.192c1.033-1.527,1.484-2.642,0.169-4.578c-1.593-2.343-0.357-4.863,1.511-6.795
		c0.044-0.349-0.191-0.307-0.327-0.32c-2.652-0.249-2.634-0.246-2.816,2.422c-0.524,7.711-1.064,15.421-1.597,23.131
		c-0.016,0.225,0.001,0.455-0.033,0.677c-0.424,2.772-0.419,2.698,2.318,2.947c7.303,0.665,14.6,1.4,22.259,2.143
		c-1.419,1.93-2.698,3.739-4.063,5.48c-0.389,0.495-1.084,0.185-1.614,0.097c-6.173-1.02-12.35-2.022-18.503-3.148
		c-1.224-0.224-1.385,0.092-1.457,1.175c-0.153,2.302-0.441,4.597-0.726,6.888c-0.245,1.975,0.756,3.169,2.822,3.287
		c1.952,0.111,3.794-0.476,5.664-0.878c2.994-0.643,5.972-1.195,9.005-0.146c2.911,1.007,5.364,4.512,4.998,7.488
		c-0.179,1.454-1.815,1.205-2.635,1.99c-0.55-0.791-0.371-1.619-0.513-2.379c-0.502-2.686-1.13-3.122-3.78-2.497
		c-1.699,0.401-3.408,0.782-5.068,1.312c-3.358,1.072-6.445,0.553-9.361-1.341c-0.511-0.332-1.056-0.612-1.664-0.962
		c-0.711,1.641-0.398,3.309-0.655,4.896c-0.945,5.842-1.786,11.701-2.688,17.55c-0.115,0.745-0.208,1.29,0.833,1.404
		c2.344,0.258,4.677,0.623,7.222,0.973c-1.393-3.125-2.648-6.119-3.921-9.096c-1.184-2.769-1.342-5.089,1.064-7.225
		c0.575-0.511,0.959-1.238,1.538-2.01c2.766,2.897,5.4,5.827,9.265,7.171c3.822,1.329,7.616,1.393,11.54-0.042
		c0.342,1.272-0.172,2.389-0.288,3.508c-0.057,0.554-0.79,0.503-1.279,0.609c-5.257,1.137-10.417,1.051-15.406-1.209
		c-0.328-0.149-0.647-0.169-1.051-0.05c1.376,3.521,3.459,6.524,6.438,8.833c0.926,0.718,0.804,1.14,0.011,1.721
		c-0.136,0.1-0.305,0.187-0.389,0.322c-2.104,3.381-5.175,3.256-8.538,2.511c-2.251-0.499-4.581-0.63-6.855-1.045
		c-0.953-0.174-1.214,0.162-1.278,0.986c-0.14,1.798-0.326,3.598-0.871,5.323c-0.349,1.105-0.001,1.444,1.107,1.638
		c7.436,1.306,14.86,2.686,22.287,4.045c0.163,0.03,0.319,0.092,0.474,0.138c0.011,0.127,0.028,0.233,0.029,0.339
		c0.022,2.611-1.848,3.173-3.865,3.944c-4.912,1.88-8.493,5.33-10.398,10.264c-0.679,1.758-1.716,2.86-3.296,3.774
		c-3.411,1.974-3.374,2.042-4.522-1.816c-1.322-4.44-2.288-8.951-2.714-13.571c-0.04-0.43-0.028-0.893-0.494-1.355
		c-1.198,6.151-2.398,12.157-3.516,18.178c-0.237,1.275-0.674,2.466-1.154,3.632c-0.532,1.294,0.006,1.627,1.14,1.893
		c7.127,1.673,14.243,3.394,21.362,5.103c0.53,0.127,1.053,0.287,1.762,0.481c-1.551,1.665-3.04,3.193-4.438,4.8
		c-0.564,0.648-1.029,0.23-1.495,0.051c-5.789-2.228-11.735-3.943-17.737-5.482c-2.27-0.582-2.959-0.199-2.794,2.166
		c0.099,1.418-0.284,2.609-0.757,3.804c-0.5,1.262-0.351,1.825,1.076,2.256c6.574,1.984,13.088,4.171,19.677,6.099
		c1.479,0.433,1.982,2.273,3.704,2.117c0.302-0.027,0.626,0.182,1.073,0.324c-1.239,1.635-2.699,2.832-4.294,3.866
		c-1.65,1.07-3.104,2.39-3.8,4.206c-0.663,1.728-1.81,2.736-3.392,3.467c-0.911,0.421-1.77,0.953-2.747,1.487
		c-1.118-4.157-2.152-8.2-2.429-12.374c-0.091-1.38-0.474-2.227-1.852-2.529c-1.285-0.281-2.416-1.523-3.796-0.99
		c-2.429,0.939-4.657,2.29-6.534,4.128c-0.781,0.765,0.012,1.306,0.432,1.863c0.561,0.743,0.89,0.203,1.298-0.209
		c1.007-1.015,2.202-1.751,3.551-2.228c1.664-0.589,3.29-0.529,4.569,0.765c1.28,1.295,1.616,2.953,1.083,4.71
		c-0.21,0.691-0.514,1.384-0.915,1.982c-1.344,2.003-1.365,1.987-1.262,4.502c0.016,0.395,0.02,0.793-0.013,1.186
		c-0.189,2.204-1.549,3.992-3.461,4.572c-1.514,0.46-3.77-0.496-5.01-2.116c-0.803-1.048-1.375-2.234-1.594-3.509
		c-0.231-1.346-0.699-0.956-1.352-0.365c-1.186,1.072-2.138,2.318-2.843,3.753c-0.198,0.404-0.366,0.824-0.584,1.217
		c-1.328,2.395-1.332,2.395,1.107,3.496c6.105,2.756,12.212,5.51,18.316,8.267C395.485,318.649,395.983,318.905,396.514,319.162z"/>
	<path style="fill:#FEFEFE;" d="M127.416,319.775c-0.36,2.51-1.321,4.77-2.878,6.765c-2.074,2.658-5.364,3.641-7.941,2.403
		c-2.619-1.257-3.756-4.241-2.908-7.668c-0.589-0.461-1.073,0.056-1.542,0.235c-2.206,0.841-4.401,1.717-6.575,2.638
		c-0.79,0.335-1.092,0.244-1.451-0.63c-0.629-1.53-0.635-2.621,0.608-4.004c4.041-4.498,5.073-9.963,4.21-15.793
		c-0.191-1.292,0.232-1.968,0.998-2.767c2.437-2.541,2.434-2.573,5.12-0.258c3.422,2.949,6.65,6.102,9.713,9.515
		c0.333-0.648-0.116-1.084-0.29-1.524c-2.072-5.23-4.428-10.364-6.183-15.697c-1.139-3.461-2.993-6.062-6.002-7.9
		c-4.189-2.558-9.336-2.119-13.086,1.034c-0.956,0.804-1.694,1.77-2.029,3.029c3.682,0.249,5.686,2.037,5.771,5.06
		c0.047,1.692-0.687,2.981-2.12,3.772c-1.449,0.801-2.916,0.645-4.294-0.33c-3.38-2.391-4.391-8.4-2.11-12.639
		c2.764-5.135,8.669-7.688,14.912-6.479c1.818,0.352,3.535,1.012,5.569,1.791c-0.993-2.167-1.139-4.275-2.268-6.157
		c-0.719-1.198-0.825-2.789-1.086-4.226c-0.161-0.887-0.421-1.033-1.325-0.819c-7.179,1.701-14.385,3.285-21.556,5.017
		c-1.331,0.321-1.376-0.099-1.344-1.161c0.052-1.731,0.712-3.297,1.798-4.461c0.931-0.997,0.908-1.951,0.837-3.052
		c-0.269-4.171-2.126-7.908-3.26-11.843c-0.754-2.615-1.442-5.21-0.74-7.974c0.847-3.332,3.811-5.775,7.223-5.838
		c1.969-0.036,2.804,0.899,2.586,2.787c-0.097,0.836-0.326,1.069-1.263,0.991c-3.208-0.27-5.356,2.461-4.467,5.48
		c1.318,4.472,3.164,8.788,3.873,13.442c0.251,1.648,0.205,3.243-0.28,5.034c2.763-0.4,5.439-0.691,7.976-1.575
		c1.559-0.543,2.158-2.066,2.671-3.519c0.251-0.712-0.416-0.987-0.825-1.32c-3.499-2.854-6.954-5.769-10.681-8.324
		c-0.848-0.582-0.941-1.038-0.448-1.87c0.682-1.151,0.796-3.081,1.881-3.406c0.928-0.278,2.047,1.303,2.992,2.15
		c1.1,0.986,2.002,0.751,2.651-0.331c0.558-0.931,1.518-2.052-0.091-3.009c-0.476-0.283-0.905-0.573-0.941-1.274
		c-0.112-2.181-0.373-4.356-0.224-6.65c5.604,1.761,9.682,5.028,11.855,10.535c2.238,5.672,0.279,10.706-2.27,15.85
		c1.665-0.081,3.125-0.599,4.611-0.949c0.846-0.199,1.275-0.053,1.518,0.916c2.334,9.276,5.392,18.341,8.187,27.481
		c2.834,9.269,7.033,18.026,10.495,27.061c1.371,3.577,3.544,6.746,5.212,10.172c0.147,0.303,0.333,0.59,0.725,0.702
		c0.511-0.367,0.191-0.914,0.248-1.368c0.147-1.174,0.178-2.364,0.36-3.531c0.363-2.322,1.121-4.468,3.687-5.152
		c1.851-0.493,4.499,1.142,5.9,3.271c0.633,0.962-0.215,1.451-0.495,2.103c-0.316,0.734-0.832,0.238-1.273,0.065
		c-2.171-0.853-2.201-0.833-2.348,1.57c-0.079,1.293,0.023,2.591-0.228,3.882c-0.527,2.712-1.04,3.205-3.843,3.397
		c0.335,1.601,1.197,3.011,1.744,4.492c0.819,2.22,1.095,4.332,0.732,6.602c-0.075,0.472-0.352,0.936,0.536,1.052
		c6.772,0.888,7.837,4.963,6.954,10.336c-0.054,0.33-0.106,0.66-0.219,1.372c1.006-0.67,1.789-1.141,2.514-1.689
		c0.686-0.519,1.188-0.712,1.698,0.245c3.907,7.319,10.521,12.1,16.483,17.486c4.269,3.857,8.576,7.674,12.921,11.446
		c0.887,0.77,0.854,1.258,0.026,1.944c-0.387,0.321-0.705,0.732-1.02,1.129c-0.381,0.481-0.757,0.657-1.226,0.122
		c-0.073-0.084-0.171-0.148-0.262-0.213c-1.084-0.768-1.93-2.556-3.074-2.319c-1.074,0.223-1.871,1.822-2.771,2.832
		c-4.015,4.509-8.014,9.032-12.049,13.524c-0.453,0.504-0.821,1.625-1.54,1.267c-0.94-0.469-2.027-1.128-2.273-2.335
		c-0.403-1.981-0.393-3.727,1.56-5.204c2.42-1.83,4.549-4.047,6.786-6.116c1.242-1.149,1.06-3.734-0.292-4.743
		c-0.777-0.579-1.602-0.41-2.164,0.156c-1.442,1.454-2.587,1.047-3.711-0.343c-0.134-0.166-0.35-0.266-0.544-0.408
		c-0.976,3.389-3.172,4.584-6.411,3.533c-6.396-2.074-8.706-9.86-4.449-14.997c2.806-3.386,8.143-3.637,11.482-0.548
		c1.621,1.5,2.601,3.379,3.242,5.457c0.13,0.422,0.105,0.815,0.765,0.89c4.68,0.53,5.65,1.369,6.672,5.658
		c0.577-0.036,0.75-0.581,1.108-0.877c0.966-0.798,1.001-1.397-0.054-2.297c-3.564-3.04-7.024-6.202-10.526-9.314
		c-2.489-2.212-5-4.4-7.464-6.64c-0.676-0.614-1.416-1.071-1.481-2.321c-0.075-1.44-1.197-1.682-2.47-0.82
		c-5.838,3.949-11.671,7.906-17.531,11.823c-0.425,0.284-0.939,1.212-1.509,0.468c-0.531-0.692-1.479-1.296-1.144-2.455
		c0.627-2.17,1.304-4.095,3.702-5.216c3.202-1.497,6.155-3.526,9.236-5.289c0.787-0.45,1.287-0.991,1.459-1.919
		c0.38-2.058,0.679-4.119,0.618-6.216c-0.026-0.904-0.219-1.655-1.393-1.728c-1.023-0.063-1.466,0.2-1.27,1.302
		c0.261,1.469,0.106,2.934-0.388,4.335c-0.965,2.74-3.652,3.739-6.15,2.247c-1.804-1.077-2.885-2.723-2.938-4.841
		c-0.024-0.953-0.293-1.348-1.179-1.667c-2.139-0.772-3.658-2.29-4.223-4.506c-0.715-2.803,1.235-5.045,4.428-5.264
		c1.864-0.128,3.54,0.536,5.351,1.375c0.402-1.701-0.222-3.179-0.65-4.704c-0.347-1.237-1.423-2.154-1.048-3.765
		c0.284-1.223-0.831-1.694-2.007-1.087c-6.946,3.591-13.893,7.182-21.009,10.861c-0.179-2.242,0.363-4.307,0.465-6.395
		c0.035-0.715,0.677-0.824,1.176-1.049c5.489-2.476,10.978-4.953,16.472-7.419c1.901-0.853,2.173-1.049,0.856-2.713
		c-2.736-3.458-3.763-7.651-5.522-11.528c-0.646-0.238-0.401,0.305-0.431,0.533C127.451,318.565,127.619,319.181,127.416,319.775z"
		/>
	<path style="fill:#FEFEFE;" d="M319.665,382.721c0.161-0.151,0.199-0.193,0.244-0.227c2.652-2.097,5.141-2.394,8.299-0.493
		c3.455,2.08,7.398,3.324,11.595,3.205c3.219-0.091,6.226-2.193,7.296-5.151c0.436-1.206,0.557-2.433-0.754-3.114
		c-1.195-0.62-1.994,0.169-2.614,1.154c-0.209,0.332-0.489,0.62-0.744,0.922c-2.133,2.519-2.134,2.508-3.329-0.512
		c-0.283-0.715-0.227-1.184,0.344-1.758c0.882-0.887,1.575-1.936,1.344-3.31c-0.3-1.781-2.109-3.042-3.753-2.43
		c-2.262,0.843-3.954,2.422-4.761,4.734c-0.698,1.999,0.15,2.978,2.259,2.833c0.2-0.014,0.484-0.039,0.594,0.073
		c0.753,0.767-0.035,3.627-1.069,3.959c-2.786,0.895-5.435-0.829-5.954-3.838c-0.36-2.088,0.205-3.997,0.885-6.022
		c-1.618,1.485-3.244,2.963-4.854,4.458c-2.275,2.112-4.53,4.248-6.82,6.343c-0.304,0.278-0.618,1.063-1.188,0.41
		c-0.559-0.642-1.083-0.552-1.585-0.085c-0.698,0.648,0.076,1.108,0.344,1.565c3.76,6.418,7.547,12.821,11.326,19.228
		c0.194,0.329,0.386,0.66,0.673,1.152c-2.32,0.367-4.49,0.359-6.657,0.409c-0.806,0.019-0.836-0.636-1.044-1.119
		c-2.405-5.598-5.235-10.981-8.283-16.249c-0.401-0.692-0.601-1.973-1.426-1.857c-0.976,0.136-2.266,0.774-2.675,1.576
		c-0.601,1.175-1.589,1.289-2.496,1.63c-0.868,0.326-1.121,0.615-0.765,1.551c2.346,6.153,4.646,12.324,6.926,18.502
		c0.282,0.764,0.501,1.214,1.356,0.613c0.833-0.586,0.93-0.14,1.06,0.669c0.171,1.064-0.787,2.365,0.178,3.099
		c0.84,0.638,2.104,0.729,3.189,1.031c2.216,0.616,4.437,1.212,6.903,1.883c-1.491,1.36-2.879,2.581-4.208,3.863
		c-0.483,0.466-0.859,0.324-1.346,0.092c-1.473-0.702-2.993-1.312-4.431-2.078c-0.961-0.512-1.442-0.469-2.101,0.548
		c-1.854,2.862-5.553,4.385-8.304,3.637c-2.983-0.811-3.761-3.375-1.678-5.669c1.853-2.04,4.264-3.081,6.942-3.594
		c-3.116-5.009-6.208-6.732-14.873-4.762c-2.694,0.613-4.726,0.296-6.922-1.022c-0.81-0.487-0.869-0.795-0.342-1.519
		c1.889-2.595,3.871-5.115,6.273-7.848c-2.661-0.126-4.974-0.168-7.311,0.093c-0.712,0.08-1.717,0.762-2.149-0.527
		c-0.066-0.196-0.262-0.284-0.363-0.135c-1.184,1.736-3.103,0.843-4.646,1.274c-0.865,0.242-1.196,0.466-1.084,1.419
		c0.547,4.651,1.022,9.31,1.526,13.966c0.229,2.119,0.245,4.286,1.674,6.094c0.274,0.347,0.73,1.07-0.395,1.059
		c-0.717-0.007-0.42,0.574-0.379,0.851c0.186,1.268-0.432,1.25-1.377,1.016c-1.947-0.483-3.717-1.147-4.621-3.169
		c-0.307-0.687-1.031-0.339-1.521-0.276c-2.466,0.315-4.811,1.135-7.187,1.832c-3.126,0.917-6.194,2.132-9.547,1.981
		c-4.516-0.204-7.764-3.499-7.676-7.811c0.043-2.102,1.277-2.894,3.286-2.241c0.702,0.228,0.514,0.649,0.461,1.037
		c-0.181,1.324,0.27,2.428,1.044,3.461c1.007,1.342,2.119,1.89,3.92,1.382c4.383-1.237,8.649-2.922,13.187-3.586
		c0.613-0.09,1.254-0.294,1.841-0.196c1.86,0.31,2.472-0.349,2.139-2.209c-0.258-1.437-0.295-2.918-0.366-4.382
		c-0.047-0.975-0.499-1.729-1.132-2.388c-1.777-1.848-2.533-1.854-4.375-0.089c-3.015,2.89-6.101,5.712-8.84,8.873
		c-0.582,0.672-0.996,0.866-1.786,0.298c-1.131-0.813-2.365-1.483-3.591-2.237c1.04-1.04,1.95-2.051,2.967-2.939
		c1.11-0.968,0.704-1.831-0.155-2.527c-0.809-0.655-1.781-1.693-2.845-0.422c-0.666,0.796-1.381,1.011-2.345,0.917
		c-1.628-0.159-3.261-0.267-4.894-0.36c-0.75-0.043-0.997-0.21-0.627-1.013c3.739-8.128,13.082-12.39,20.776-9.022
		c2.211,0.968,4.34,2.079,6.481,3.706c-0.2-1.879-0.374-3.48-0.538-5.082c-0.047-0.462-0.37-1.078,0.502-1.117
		c7.214-0.325,13.403-4.012,20.063-6.149c2.998-0.962,5.961-2.068,8.847-3.324c1.809-0.787,3.443-1.975,5.504-3.188
		c-1.528-0.24-2.62-0.366-3.691-0.589c-2.565-0.533-3.782-2.285-3.47-4.921c0.672-5.689,3.423-8.583,9.272-9.526
		c2.915-0.47,5.837-0.308,8.722,0.445c0.934,0.244,1.487,0.521,0.924,1.562c-0.026,0.048-0.024,0.11-0.038,0.165
		c-0.623,2.51-0.628,2.531-3.052,2.008c-2.473-0.534-4.827-0.158-7.084,0.891c-0.549,0.255-1.068,0.648-1.494,1.083
		c-2.292,2.344-1.971,3.711,1.037,4.934c2.24,0.911,4.112,0.787,6.452-0.395c6.434-3.25,10.804-8.817,16.038-13.397
		c4.713-4.123,9.226-8.478,13.759-12.801c0.833-0.795,1.282-0.766,1.899,0.087c0.262,0.363,0.593,0.686,0.932,0.981
		c0.67,0.581,0.601,0.973-0.074,1.591c-4.16,3.805-8.268,7.668-12.372,11.665c2.073-0.745,4.123-1.241,6.279-0.397
		c0.662,0.259,0.705-0.591,0.943-0.969c2.287-3.644,5.247-4.892,8.682-3.617c2.229,0.827,3.611,2.927,3.57,5.421
		c-0.037,2.208-1.406,4.151-3.39,4.76c-0.54,0.166-1.355,0.683-1.484-0.306c-0.123-0.94-1.404-2.02-0.148-2.836
		c1.208-0.785,1.168-1.502,0.427-2.459c-0.799-1.032-1.734-1.645-3.042-0.808c-1.774,1.136-2.384,3.689-1.38,5.634
		c0.198,0.384,0.475,0.383,0.819,0.421c4.247,0.473,6.185,3.512,5.004,7.823c-1.665,6.074-7.699,9.616-14.443,8.622
		c-5.338-0.787-10.037-3.258-14.882-5.363C321.179,383.466,320.48,383.108,319.665,382.721z"/>
	<path style="fill:#FEFEFE;" d="M86.33,116.782c-0.656,3.976-0.234,7.464,1.028,10.849c0.373,1.001,0.775,2.003,1.745,2.623
		c0.615,0.393,1.253,0.32,1.701-0.15c0.462-0.485-0.253-0.747-0.44-1.094c-1.728-3.218-3.171-6.506-2.347-10.288
		c0.628-2.882,2.651-4.292,5.082-3.641c2.492,0.668,4.194,3.654,3.52,6.125c-0.319,1.169-0.999,1.841-2.237,1.958
		c-0.438,0.041-1.154-0.293-1.216,0.501c-0.052,0.658,0.339,1.176,0.94,1.487c0.681,0.353,1.411,0.372,2.149,0.266
		c0.55-0.079,1.097-0.187,1.862-0.32c-0.968,3.531-2.406,6.571-5.226,8.732c-2.946,2.258-6.269,1.656-8.538-1.44
		c-0.528-0.72-0.952-1.516-1.528-2.443c-1.292,2.404-2.635,4.619-4.681,7.043c2.764,0,5.061-0.012,7.358,0.003
		c3.445,0.022,6.89,0.095,10.334,0.073c0.973-0.006,1.361,0.161,1.377,1.275c0.156,10.61,1.261,21.165,1.883,31.749
		c0.704,12.002,2.519,23.887,3.89,35.817c0.616,5.366,1.566,10.697,2.488,16.022c0.2,1.153-0.19,1.401-1.111,1.489
		c-0.506,0.048-1.035,0.023-1.51,0.172c-0.885,0.277-1.085-0.212-1.187-0.901c-0.116-0.781-0.338-1.561-0.336-2.341
		c0.003-1.181-0.474-1.365-1.561-1.191c-7.623,1.223-15.255,2.386-22.885,3.562c-0.096,0.015-0.206-0.062-0.481-0.152
		c0.792-2.033,1.56-4.064,2.376-6.076c0.395-0.974,1.369-0.657,2.08-0.717c6.013-0.512,12.029-1.007,18.051-1.39
		c1.253-0.08,1.507-0.477,1.326-1.6c-0.367-2.276-1.101-4.491-1.134-6.822c-0.014-0.983-0.392-1.304-1.459-1.165
		c-5.256,0.684-10.525,1.268-15.789,1.895c-2.072,0.247-4.149,0.467-6.209,0.794c-0.977,0.155-1.343-0.171-1.351-1.1
		c-0.003-0.336-0.075-0.673-0.131-1.007c-0.207-1.246-0.168-1.929,1.58-1.917c4.424,0.03,12.038-6.343,11.545-10.989
		c-1.145,0.837-2.199,1.846-3.745,1.43c-1.088-0.292-1.9-0.961-2.533-1.869c-1.848-2.647-1.483-7.02,0.738-8.868
		c2.066-1.719,5.096-1.472,7.157,0.681c2.807,2.932,3.576,6.435,2.597,10.324c-0.621,2.469-1.831,4.686-3.51,7.06
		c3.472-0.41,6.584-0.783,9.697-1.141c0.986-0.114,0.574-0.837,0.524-1.295c-0.482-4.429-1.044-8.85-1.503-13.281
		c-0.29-2.8-0.997-5.555-0.915-8.393c0.033-1.159-0.293-1.638-1.646-1.531c-6.973,0.549-13.954,0.991-20.935,1.419
		c-0.66,0.04-1.733,0.56-1.962-0.28c-0.274-1.01-0.567-2.21,0.153-3.255c1.165-1.69,2.391-2.827,4.838-2.442
		c2.987,0.469,6.071,0.335,9.114,0.418c1.556,0.042,3.352-2.296,2.982-3.806c-0.228-0.931-0.996-1.327-1.777-1.295
		c-2.003,0.082-2.272-1.126-2.241-2.67c0.005-0.262-0.049-0.525-0.078-0.815c-3.758,1.865-6.662,0.513-7.734-3.53
		c-1.605-6.053,1.943-11.613,7.785-12.197c5.168-0.517,9.391,3.924,8.694,9.137c-0.219,1.635-0.632,3.205-1.478,4.638
		c-0.268,0.453-0.399,0.758,0.134,1.251c2.55,2.361,2.855,4.879,1.068,7.851c-0.141,0.235-0.308,0.455-0.453,0.668
		c0.102,0.122,0.162,0.257,0.223,0.258c2.756,0.026,2.821,0.021,2.653-2.76c-0.425-7.038-0.808-14.083-1.461-21.101
		c-0.142-1.522-0.53-3.053-0.487-4.611c0.028-0.993-0.621-0.876-1.244-0.885c-4.459-0.066-8.918-0.133-13.376-0.208
		c-1.917-0.032-3.876-0.35-5.74-0.056c-1.863,0.294-3.48,0.485-5.038-0.84c-0.521-0.443-0.844,0.363-1.141,0.705
		c-2.068,2.377-4.108,4.779-6.283,7.321c-0.618-1.885-1.174-3.625-1.764-5.354c-0.233-0.682,0.138-1.043,0.592-1.424
		c1.298-1.087,2.554-2.226,3.883-3.274c0.715-0.563,0.759-0.942,0.234-1.747c-1.463-2.242-1.775-4.727-0.979-7.298
		c0.629-2.031,2.374-3.51,3.941-3.441c1.551,0.068,2.876,1.493,3.438,3.713c0.523,2.068,0.498,4.134-0.061,6.193
		c-0.096,0.355-0.491,0.742-0.05,1.064c0.345,0.252,0.75,0.06,1.122-0.093c2.378-0.983,4.152-2.697,5.616-4.741
		c2.345-3.275,3.784-6.9,3.943-10.965c0.024-0.609,0.118-1.053,0.718-1.374C82.673,118.867,84.319,117.912,86.33,116.782z"/>
	<path style="fill:#FEFEFE;" d="M214.03,396.397c3.121,0.194,6.041,0.407,8.653,1.978c4.401,2.646,5.34,7.33,2.217,11.397
		c-0.481,0.626-0.42,0.927-0.018,1.539c3.066,4.668,1.41,9.386-3.905,11.113c-4.695,1.525-8.926,0.263-12.758-2.497
		c-5.864-4.223-9.51-10.144-12.324-16.649c-0.513-1.187-0.914-2.421-1.38-3.629c-0.263-0.682-0.05-0.975,0.671-1.151
		c2.526-0.617,2.583-0.678,3.823,1.58c1.597,2.908,3.059,5.89,4.618,8.82c3.201,6.016,8.482,8.409,15.031,8.551
		c0.859,0.019,1.679-0.204,2.448-0.567c0.774-0.365,1.393-0.986,1.096-1.862c-0.294-0.866-0.687-1.737-2.015-1.594
		c-2.199,0.237-4.117-0.517-5.605-2.191c-1.73-1.945-1.19-4.526,1.175-5.583c1.395-0.623,2.852-0.698,4.275-0.107
		c0.749,0.311,1.393,0.728,2.044-0.186c0.587-0.824,0.702-1.623,0.246-2.524c-0.324-0.639-0.839-1.08-1.474-1.334
		c-3.071-1.227-6.139-1.263-9.175,0.132c-0.8,0.368-1.364,0.723-0.422,1.668c0.962,0.964,1.079,2.232,0.445,3.454
		c-0.616,1.188-1.642,1.804-3.002,1.865c-2.527,0.115-4.723-1.124-5.506-3.136c-0.797-2.046-0.063-4.689,1.814-6.266
		C207.668,396.98,210.921,396.633,214.03,396.397z"/>
	<path style="fill:#FDF100;" d="M206.055,68.936c-0.648,1.089-1.297,2.177-1.945,3.266c-4.348-2.449-8.683-4.921-13.054-7.328
		c-0.938-0.516-1.461-0.983-0.621-1.961c0.637-0.741,0.564-2.499,2.424-1.413C197.219,64.046,201.652,66.465,206.055,68.936z"/>
	<path style="fill:#FCF001;" d="M249.775,47.214c-1.238-0.002-2.476-0.003-3.714-0.005c0.078-4.85,0.25-9.702,0.185-14.55
		c-0.023-1.734,0.942-1.407,1.911-1.412c0.983-0.005,1.958-0.306,1.91,1.423C249.932,37.516,250.043,42.369,249.775,47.214z"/>
	<path style="fill:#FDF100;" d="M225.428,52.332c-1.077,0.577-2.154,1.153-3.232,1.73c-2.642-4.258-5.263-8.529-7.946-12.762
		c-0.536-0.846-0.352-1.176,0.453-1.66c2.161-1.297,2.129-1.34,3.486,0.88C220.599,44.46,223.015,48.395,225.428,52.332z"/>
	<path style="fill:#FDF001;" d="M198.811,91.991c0.017,1.238,0.034,2.476,0.051,3.715c-5.024,0.001-10.049-0.073-15.07,0.045
		c-1.643,0.039-1.515-0.818-1.479-1.876c0.033-0.984-0.293-1.974,1.428-1.934C188.761,92.061,193.787,91.989,198.811,91.991z"/>
	<path style="fill:#FEF100;" d="M214.925,59.07c-0.907,0.827-1.815,1.653-2.722,2.48c-3.636-3.285-7.248-6.596-10.924-9.835
		c-0.839-0.739-0.981-1.241-0.055-1.94c0.354-0.268,0.676-0.613,0.921-0.984c0.464-0.701,0.855-0.672,1.457-0.114
		C207.36,52.159,211.147,55.609,214.925,59.07z"/>
	<path style="fill:#FEF100;" d="M237.78,48.197c-1.207,0.314-2.415,0.627-3.622,0.941c-1.59-4.719-3.15-9.449-4.796-14.149
		c-0.337-0.961-0.13-1.326,0.804-1.484c0.381-0.064,0.763-0.205,1.108-0.382c1.028-0.526,1.446-0.106,1.773,0.9
		C234.589,38.759,236.196,43.475,237.78,48.197z"/>
	<path style="fill:#FDF101;" d="M262.776,49.153c-1.2-0.298-2.399-0.596-3.599-0.894c1.251-4.89,2.515-9.777,3.738-14.674
		c0.173-0.692,0.39-1.002,1.133-0.71c0.467,0.183,0.967,0.338,1.463,0.38c1.076,0.091,1.248,0.524,0.969,1.561
		C265.193,39.581,264.001,44.371,262.776,49.153z"/>
	<path style="fill:#FDF100;" d="M200.685,80.159c-0.299,1.216-0.599,2.432-0.898,3.648c-4.721-1.234-9.415-2.59-14.175-3.646
		c-2.134-0.473-1.03-1.613-0.941-2.611c0.108-1.207,0.734-1.393,1.844-1.093C191.227,77.73,195.96,78.931,200.685,80.159z"/>
	<path style="fill:#FDF001;" d="M297.889,96.384c0.045-1.233,0.089-2.466,0.134-3.699c4.786-0.008,9.574,0.047,14.358-0.061
		c1.561-0.035,1.418,0.836,1.368,1.801c-0.047,0.911,0.451,2.034-1.332,1.996C307.576,96.319,302.731,96.385,297.889,96.384z"/>
	<path style="fill:#FDF100;" d="M274.4,53.942c-1.114-0.572-2.227-1.144-3.341-1.717c2.522-4.268,5.051-8.532,7.558-12.81
		c0.32-0.546,0.581-0.633,1.18-0.334c2.593,1.294,2.619,1.276,1.139,3.797C278.769,46.572,276.58,50.255,274.4,53.942z"/>
	<path style="fill:#FDF100;" d="M292.416,71.614c-0.667-1.063-1.335-2.126-2.002-3.188c4.115-2.302,8.272-4.533,12.323-6.943
		c1.489-0.886,1.701,0.17,2.158,0.997c0.447,0.81,1.285,1.53-0.266,2.342C300.503,66.982,296.48,69.337,292.416,71.614z"/>
	<path style="fill:#FEF100;" d="M285.011,61.917c-0.911-0.829-1.822-1.658-2.733-2.487c3.385-3.208,6.805-6.38,10.131-9.648
		c0.937-0.921,1.419-0.882,2.353,0.032c1.174,1.15,1.415,1.819,0.004,3.046C291.42,55.771,288.251,58.885,285.011,61.917z"/>
	<path style="fill:#FDF101;" d="M296.982,83.577c-0.295-1.196-0.589-2.393-0.884-3.589c4.557-1.238,9.127-2.432,13.662-3.745
		c1.029-0.298,1.207,0.02,1.442,0.889c0.654,2.419,0.7,2.415-1.679,3.06C305.345,81.326,301.163,82.449,296.982,83.577z"/>
	<path style="fill:#FEFEFE;" d="M427.365,133.673c-0.024,2.369-1.441,4.147-3.321,4.165c-1.858,0.017-3.284-1.72-3.267-3.98
		c0.018-2.322,1.472-4.012,3.431-3.987C426.123,129.895,427.388,131.419,427.365,133.673z"/>
	<path style="fill:#47574F;" d="M175.491,294.978c2.506-0.686,5.061-0.147,7.59-0.275c0.737-0.037,1.558-0.305,2.241,0.275
		C182.045,294.978,178.768,294.978,175.491,294.978z"/>
	<path style="fill:#35825C;" d="M169.696,98.325c-1.689-0.038-3.401,0.348-5.057-0.282
		C166.325,98.138,168.038,97.732,169.696,98.325z"/>
	<path style="fill:#35825C;" d="M321.941,100.078c-1.656,0.63-3.369,0.243-5.057,0.282
		C318.542,99.766,320.255,100.173,321.941,100.078z"/>
	<path style="fill:#48785D;" d="M157.858,97.988c-1.589-0.002-3.179-0.003-4.768-0.005C154.68,97.528,156.269,97.522,157.858,97.988
		z"/>
	<path style="fill:#48785D;" d="M342.272,100.361c-1.46-0.043-2.947,0.333-4.372-0.275
		C339.357,100.192,340.848,99.746,342.272,100.361z"/>
	<path style="fill:#486957;" d="M112.105,113.665c-1.433,0.619-2.928,0.222-4.395,0.268
		C109.143,113.32,110.639,113.74,112.105,113.665z"/>
	<path style="fill:#476555;" d="M145.995,98.068c-1.32,0.592-2.704,0.232-4.061,0.271C143.254,97.755,144.639,98.131,145.995,98.068
		z"/>
	<path style="fill:#47785D;" d="M316.824,296.43c1.362-0.003,2.725-0.006,4.087-0.009c0.114,0.047,0.155,0.1,0.123,0.159
		c-0.033,0.062-0.066,0.093-0.102,0.093C319.562,296.612,318.165,297.004,316.824,296.43z"/>
	<path style="fill:#47785D;" d="M300.589,296.42c1.247,0.002,2.494,0.005,3.741,0.007c-1.221,0.594-2.509,0.173-3.764,0.246
		c-0.103-0.066-0.134-0.126-0.093-0.179C300.512,296.445,300.55,296.42,300.589,296.42z"/>
	<path style="fill:#486957;" d="M328.686,296.758c1.259,0.037,2.547-0.346,3.765,0.262
		C331.195,296.953,329.907,297.346,328.686,296.758z"/>
	<path style="fill:#3CB97A;" d="M127.416,319.775c0-1.054,0-2.108,0-3.626c0.286,0.673,0.415,0.978,0.545,1.283
		C127.403,318.126,128.082,319.107,127.416,319.775z"/>
	<path style="fill:#486A57;" d="M291.082,297.021c0.984-0.59,2.049-0.236,3.081-0.265
		C293.177,297.314,292.113,296.975,291.082,297.021z"/>
	<path style="fill:#46795D;" d="M189.035,295.069c1.019,0.021,2.07-0.309,3.038,0.274
		C191.059,295.267,190.005,295.631,189.035,295.069z"/>
	<path style="fill:#486856;" d="M335.5,297.091c1.047,0.016,2.12-0.294,3.123,0.259C337.578,297.319,336.502,297.649,335.5,297.091z
		"/>
	<path style="fill:#485950;" d="M320.933,296.673c-0.007-0.084-0.014-0.168-0.022-0.252c1.049,0.033,2.127-0.319,3.136,0.24
		C323.009,296.665,321.971,296.669,320.933,296.673z"/>
	<path style="fill:#47584F;" d="M300.589,296.42c-0.008,0.085-0.015,0.169-0.023,0.254c-0.9,0-1.799,0-2.699,0
		C298.728,296.082,299.679,296.471,300.589,296.42z"/>
	<path style="fill:#436955;" d="M381.601,110.608c-0.557,0.551-1.256,0.311-1.89,0.287c-0.473-0.018-0.504-0.329-0.171-0.652
		C380.133,110.896,380.924,110.429,381.601,110.608z"/>
	<path style="fill:#466454;" d="M347.733,100.709c-0.916-0.025-1.868,0.314-2.727-0.272
		C345.918,100.497,346.871,100.147,347.733,100.709z"/>
	<path style="fill:#32845C;" d="M174.444,98.665c-0.783-0.002-1.566-0.005-2.35-0.007C172.879,98.192,173.662,98.251,174.444,98.665
		z"/>
	<path style="fill:#486756;" d="M315.572,100.452c-0.768,0.531-1.621,0.251-2.445,0.259
		C313.894,100.169,314.75,100.476,315.572,100.452z"/>
	<path style="fill:#486957;" d="M169.722,295.325c0.751-0.568,1.598-0.247,2.409-0.262
		C171.377,295.6,170.531,295.287,169.722,295.325z"/>
	<path style="fill:#476655;" d="M345.669,297.768c0.798,0.019,1.634-0.298,2.368,0.272
		C347.242,298.001,346.407,298.305,345.669,297.768z"/>
	<path style="fill:#486957;" d="M341.229,297.437c0.836-0.014,1.695-0.257,2.478,0.254
		C342.876,297.662,342.009,297.977,341.229,297.437z"/>
	<path style="fill:#466554;" d="M286.359,297.366c0.74-0.566,1.579-0.264,2.383-0.274C288,297.634,287.159,297.32,286.359,297.366z"
		/>
	<path style="fill:#446956;" d="M386.087,114.691c-0.302,0.288-0.687,0.473-0.967,0.09c-0.265-0.364-0.224-0.819,0.183-1.147
		C385.305,114.178,385.378,114.67,386.087,114.691z"/>
	<path style="fill:#37815C;" d="M203.323,296.426c0.677-0.01,1.389-0.26,1.986,0.284
		C204.641,296.655,203.925,296.941,203.323,296.426z"/>
	<path style="fill:#32845C;" d="M137.87,98.658c-0.671,0.002-1.342,0.004-2.013,0.006C136.526,98.252,137.197,98.187,137.87,98.658z
		"/>
	<path style="fill:#486856;" d="M352.139,101.045c-0.724,0.008-1.477,0.253-2.14-0.254
		C350.72,100.804,351.476,100.529,352.139,101.045z"/>
	<path style="fill:#486856;" d="M194.105,295.401c0.701,0.01,1.439-0.284,2.072,0.262
		C195.478,295.642,194.742,295.912,194.105,295.401z"/>
	<path style="fill:#466B57;" d="M177.543,99.012c-0.696-0.013-1.433,0.285-2.059-0.267
		C176.178,98.769,176.911,98.499,177.543,99.012z"/>
	<path style="fill:#466353;" d="M134.796,98.743c-0.623,0.546-1.355,0.27-2.051,0.272C133.372,98.501,134.104,98.772,134.796,98.743
		z"/>
	<path style="fill:#3C7458;" d="M365.339,102.4c-0.589,0.007-1.216,0.253-1.72-0.274C364.204,102.137,364.827,101.923,365.339,102.4
		z"/>
	<path style="fill:#486857;" d="M311.434,100.783c-0.512,0.52-1.141,0.263-1.731,0.261
		C310.221,100.568,310.845,100.789,311.434,100.783z"/>
	<path style="fill:#456A56;" d="M200.896,296.076c0.587-0.008,1.21-0.247,1.713,0.272
		C202.025,296.339,201.406,296.551,200.896,296.076z"/>
	<path style="fill:#476B58;" d="M197.84,295.74c0.589-0.003,1.217-0.257,1.726,0.265C198.978,295.997,198.356,296.215,197.84,295.74
		z"/>
	<path style="fill:#446352;" d="M308.364,101.115c-0.502,0.512-1.123,0.285-1.71,0.275
		C307.162,100.914,307.781,101.123,308.364,101.115z"/>
	<path style="fill:#476354;" d="M183.625,99.697c-0.579,0.005-1.196,0.244-1.691-0.271
		C182.512,99.427,183.122,99.229,183.625,99.697z"/>
	<path style="fill:#486A57;" d="M355.867,101.382c-0.615,0.024-1.255,0.226-1.8-0.254
		C354.679,101.131,355.323,100.9,355.867,101.382z"/>
	<path style="fill:#446352;" d="M128.018,99.42c-0.502,0.512-1.123,0.285-1.71,0.275C126.816,99.219,127.435,99.428,128.018,99.42z"
		/>
	<path style="fill:#456554;" d="M362.306,102.067c-0.586,0.013-1.207,0.239-1.708-0.275
		C361.18,101.803,361.798,101.592,362.306,102.067z"/>
	<path style="fill:#476B58;" d="M282.877,297.692c0.542-0.479,1.181-0.279,1.795-0.257
		C284.13,297.918,283.487,297.691,282.877,297.692z"/>
	<path style="fill:#476957;" d="M359.251,101.724c-0.589,0-1.217,0.255-1.727-0.265
		C358.113,101.464,358.735,101.248,359.251,101.724z"/>
	<path style="fill:#466E58;" d="M166.261,295.66c0.54-0.48,1.178-0.282,1.79-0.259C167.512,295.882,166.87,295.658,166.261,295.66z"
		/>
	<path style="fill:#EC1C24;" d="M248.566,126.396c-0.638,0.699-0.982-0.032-1.372-0.315c-2.372-1.719-4.187-4.02-6.259-6.052
		c0.066-0.506-0.276-0.839-0.523-1.204c-4.003-5.916-5.133-12.519-4.709-19.508c0.454-7.491,2.569-14.631,4.595-21.786
		c1.32-4.663,2.745-9.296,3.425-14.112c0.09-0.638,0.266-1.029,1.035-1c0.605,0.023,0.897,0.127,0.948,0.817
		c0.681,9.282,3.988,17.881,6.926,26.579c1.66,4.913,3.158,9.865,3.604,15.082c0.616,7.215-1.483,13.57-5.857,19.25
		c-0.344,0.446-0.684,0.895-1.026,1.342C249.145,125.839,249.037,126.275,248.566,126.396z"/>
	<path style="fill:#D5BCB4;" d="M248.566,126.396c0.203-0.354,0.367-0.741,0.786-0.906c0.11,0.112,0.22,0.225,0.33,0.337
		C249.426,126.245,249.136,126.595,248.566,126.396z"/>
	<path style="fill:#FEFEFE;" d="M125.692,101.462c6.588-1.022,13.229-1.43,19.88-1.727c12.372-0.553,24.714-0.15,37.001,1.405
		c18.634,2.357,36.531,7.058,52.702,17.043c4.426,2.733,8.587,5.837,12.335,9.46c0.822,0.794,1.401,1.103,2.433,0.139
		c15.79-14.744,34.863-22.023,56.009-24.682c15.538-1.954,31.073-1.724,46.628-0.394c6.018,0.514,12.008,1.259,17.999,2.025
		c1.445,0.185,1.559,0.658,1.272,1.885c-3.531,15.103-7.048,30.209-10.522,45.325c-9.335,40.622-18.66,81.246-27.921,121.884
		c-0.354,1.552-0.828,1.765-2.287,1.531c-11.642-1.871-23.29-1.235-34.926,0.131c-16.166,1.898-32.015,5.522-47.913,8.872
		c-1.018,0.215-1.945,0.238-2.962-0.127c-12.34-4.42-25.135-6.757-38.114-8.231c-9.934-1.128-19.91-1.533-29.897-1.636
		c-4.285-0.044-8.578,0.115-12.856,0.37c-1.27,0.075-1.634-0.266-1.875-1.397c-2.594-12.195-5.216-24.384-7.854-36.57
		c-5.8-26.794-11.616-53.585-17.421-80.378c-3.942-18.192-7.877-36.385-11.814-54.578
		C125.475,101.651,125.51,101.534,125.692,101.462z"/>
	<path style="fill:#FEFEFE;" d="M236.296,298.208c1.144-0.972,0.031-1.117-0.539-1.385c-4.813-2.261-9.835-3.928-14.985-5.223
		c-12.709-3.196-25.662-4.418-38.722-4.852c-8.92-0.297-17.828-0.12-26.728,0.461c-1.313,0.086-1.825-0.216-2.125-1.545
		c-6.162-27.294-12.379-54.576-18.578-81.862c-6.424-28.275-12.841-56.552-19.261-84.829c-0.624-2.75-1.174-5.521-1.903-8.243
		c-0.337-1.258,0.149-1.479,1.185-1.465c0.789,0.011,1.598,0.085,2.364-0.058c1.028-0.191,1.324,0.196,1.536,1.156
		c2.113,9.586,4.274,19.161,6.432,28.737c7.378,32.743,14.76,65.485,22.138,98.228c3.249,14.42,6.516,28.836,9.698,43.27
		c0.31,1.405,0.894,1.533,2.132,1.449c21.761-1.471,43.419-1.083,64.801,3.84c5.56,1.28,10.962,3.065,16.139,5.485
		c0.626,0.293,1.112,0.727,1.568-0.294c0.484-1.084-0.444-0.976-0.874-1.177c-8.14-3.813-16.778-5.94-25.589-7.443
		c-14.975-2.555-30.081-2.994-45.227-2.682c-3.156,0.065-6.313,0.243-9.458,0.503c-1.306,0.108-1.879-0.022-2.217-1.545
		c-8.839-39.819-17.746-79.622-26.659-119.424c-4.019-17.946-8.06-35.887-12.145-53.818c-0.319-1.4-0.192-2.125,1.355-2.437
		c1.14-0.23,2.215-0.789,3.318-1.201c0.378,0.372,0.01,0.918,0.307,1.309c4.47,20.667,8.939,41.335,13.411,62.002
		c4.686,21.659,9.374,43.317,14.065,64.974c3.271,15.1,6.557,30.196,9.8,45.301c0.186,0.865,0.52,1.076,1.354,1.028
		c11.392-0.655,22.78-0.513,34.16,0.291c16.48,1.165,32.726,3.591,48.368,9.177c0.581,0.207,1.146,0.422,2.095,0.356
		c-1.41,1.597-2.666,3.011-3.914,4.432c-2.01,2.289-3.997,4.599-6.044,6.853c-0.286,0.314-0.455,1.216-1.259,0.631
		c0.069,0.076,0.103,0.114,0.103,0.114C236.433,298.361,236.399,298.323,236.296,298.208z"/>
	<path style="fill:#FEFEFE;" d="M384.011,111.935c-3.485,14.909-6.924,29.629-10.366,44.35
		c-7.974,34.113-15.951,68.226-23.923,102.341c-2.157,9.228-4.317,18.455-6.426,27.694c-0.222,0.97-0.529,1.228-1.557,1.157
		c-16.256-1.129-32.491-0.911-48.672,1.107c-11.235,1.401-22.259,3.701-32.636,8.452c-0.487,0.223-0.823,0.405-1.319-0.071
		c-3.542-3.405-6.948-6.927-10.057-11.095c2.989-0.634,5.774-1.223,8.56-1.815c12.312-2.615,24.63-5.198,37.134-6.744
		c12.81-1.584,25.627-2.454,38.432,0.025c1.224,0.237,1.239-0.441,1.425-1.26c3.799-16.723,7.576-33.452,11.442-50.159
		c7.847-33.909,15.744-67.806,23.621-101.708c1.251-5.386,2.536-10.764,3.742-16.16c0.219-0.981,0.455-1.338,1.337-0.613
		c0.128,0.105,0.305,0.149,0.444,0.244c0.913,0.628,2.539,0.505,2.815,1.553c0.253,0.959-0.429,2.16-0.684,3.258
		c-12.935,55.544-25.876,111.086-38.766,166.64c-0.34,1.464-0.953,1.644-2.273,1.555c-18.301-1.223-36.549-0.838-54.692,2.087
		c-8.544,1.378-16.897,3.473-24.86,6.949c-0.361,0.158-0.705,0.356-1.072,0.5c-0.563,0.221-0.796,0.496-0.468,1.133
		c0.305,0.593,0.584,0.626,1.175,0.362c14.893-6.66,30.757-8.618,46.815-9.57c11.728-0.695,23.458-0.604,35.173,0.321
		c1.1,0.087,1.14-0.507,1.315-1.261c2.784-11.978,5.596-23.95,8.387-35.926c8.296-35.6,16.587-71.201,24.878-106.802
		c1.894-8.131,3.805-16.258,5.654-24.399c0.274-1.205,0.64-1.856,2.057-1.73C381.676,112.44,382.743,112.108,384.011,111.935z"/>
	<path style="fill:#FEFEFE;" d="M236.294,298.207c-0.262,1.809-1.24,2.582-2.792,2.193c-15.479-3.878-31.172-6.425-47.124-7.036
		c-12.4-0.475-24.727,0.196-36.623,4.219c-1.589,0.537-1.412-0.585-1.601-1.308c-3.143-12.001-6.057-24.06-8.901-36.135
		c-8.094-34.366-15.82-68.815-23.274-103.324c-2.846-13.176-5.721-26.348-8.102-39.622c-0.24-1.339,0.021-1.774,1.381-1.831
		c3.125-0.132,3.109-0.181,3.832,2.962c7.952,34.573,15.908,69.146,23.864,103.718c5.022,21.821,10.055,43.64,15.036,65.471
		c0.266,1.166,0.626,1.554,1.861,1.454c9.291-0.752,18.604-0.899,27.914-0.587c15.489,0.518,30.847,1.999,45.677,6.919
		c2.677,0.888,5.283,1.947,7.846,3.123c0.301,0.138,0.908,0.908,1.009-0.214C236.296,298.208,236.294,298.207,236.294,298.207z"/>
	<path style="fill:#FEFEFE;" d="M388.023,116.112c-5.145,22.866-10.254,45.596-15.375,68.323
		c-6.846,30.379-13.701,60.756-20.553,91.133c-1.464,6.493-2.954,12.98-4.368,19.483c-0.205,0.945-0.457,1.308-1.499,1.218
		c-12.714-1.107-25.46-1.564-38.216-1.453c-13.44,0.117-26.861,0.658-40.063,3.54c-1.597,0.349-3.194,0.725-4.75,1.221
		c-0.846,0.269-1.566,0.189-1.862-0.571c-0.353-0.909,0.681-0.812,1.121-1.007c8.789-3.9,18.085-5.934,27.538-7.333
		c11.302-1.673,22.687-2.209,34.097-2.174c6.205,0.019,12.417,0.126,18.601,0.712c1.189,0.113,1.61-0.148,1.887-1.34
		c3.844-16.538,7.741-33.063,11.638-49.588c8.636-36.621,17.278-73.241,25.919-109.862c0.726-3.075,1.464-6.148,2.186-9.224
		C384.95,116.526,384.944,116.524,388.023,116.112z"/>
	<path style="fill:#6D6E71;" d="M124.258,103.161c-0.342-0.38-0.361-0.836-0.307-1.309c0.426-0.822,1.167-0.234,1.741-0.39
		c-0.035,0.116-0.07,0.233-0.104,0.349C124.333,101.461,124.219,102.236,124.258,103.161z"/>
	<path style="fill:#01A651;" d="M404.254,132.406c0-2.462,0.024-4.754-0.012-7.044c-0.014-0.862,0.489-0.848,1.095-0.847
		c4.676,0.008,9.352,0.005,14.135,0.27c-2.012,2.739-3.861,5.373-5.176,8.496c-1.27-2.152-2.496-4.165-3.651-6.217
		c-0.546-0.97-0.962-0.968-1.71-0.162C407.322,128.639,405.793,130.443,404.254,132.406z"/>
	<path style="fill:#01A651;" d="M385.792,319.516c-3.583,1.469-6.602,3.287-9.52,5.653c-0.757-3.198-0.464-6.225,0.05-9.251
		c0.058-0.343,0.217-0.627,0.693-0.408C379.861,316.821,382.714,318.114,385.792,319.516z"/>
	<path style="fill:#01A651;" d="M407.67,245.106c-3.109,2.354-5.647,4.778-7.82,7.891c-1.423-2.967-1.951-5.896-2.301-8.873
		c-0.063-0.54,0.048-0.841,0.726-0.713C401.292,243.977,404.316,244.504,407.67,245.106z"/>
	<path style="fill:#03A653;" d="M412.822,163.096c-2.1,3.845-1.323,7.13,1.82,8.357c-1.199,1.661-3.386,1.58-4.681-0.172
		C408.134,168.81,409.603,164.279,412.822,163.096z"/>
	<path style="fill:#06A755;" d="M398.964,294.98c-0.233-1.259-0.482-2.607-0.78-4.219c1.445,0.359,2.734,0.679,4.109,1.02
		C401.118,292.91,400.058,293.929,398.964,294.98z"/>
	<path style="fill:#01A651;" d="M114.508,306.786c2.262,1.717,3.922,3.628,5.592,5.532c0.471,0.537,0.399,0.795-0.293,1.061
		c-2.502,0.961-4.981,1.982-7.757,3.096C113.43,313.259,114.12,310.165,114.508,306.786z"/>
	<path style="fill:#02A652;" d="M153.561,380.367c-0.242-2.371,1.386-3.936,3.636-3.518c2.997,0.557,5.066,3.737,4.623,7.427
		C159.957,380.939,157.745,378.588,153.561,380.367z"/>
	<path style="fill:#02A652;" d="M116.745,319.663c1.904-0.75,3.464-1.372,5.032-1.975c0.304-0.117,0.598-0.498,0.9,0.16
		c0.865,1.886-0.145,5.63-1.997,6.831C120.364,322.364,119.448,320.484,116.745,319.663z"/>
	<path style="fill:#02A652;" d="M107.046,255.242c0.01-0.148-0.005,0.134-0.029,0.415c-0.039,0.444,0.064,1.026-0.363,1.24
		c-0.478,0.239-0.702-0.422-1.095-0.593c-0.15-0.065-0.273-0.198-0.405-0.303c-3.067-2.466-3.097-2.773-0.805-5.91
		c0.477-0.652,0.755-0.2,1.037,0.099C106.61,251.482,107.13,253.045,107.046,255.242z"/>
	<path style="fill:#01A651;" d="M292.418,394.865c2.18-0.807,4.081-1.488,5.963-2.22c0.58-0.226,0.922-0.197,1.158,0.445
		c1.567,4.257,3.154,8.507,4.821,12.992c-3.077-0.885-5.994-1.353-9.186-1.594c1.791-2.389,3.465-4.623,5.242-6.993
		C297.78,396.628,295.284,395.807,292.418,394.865z"/>
	<path style="fill:#01A652;" d="M265.094,403.413c-0.418,0.233-0.647,0.31-0.809,0.46c-1.156,1.068-2.193,2.82-3.478,3.022
		c-1.081,0.17-2.199-1.787-3.596-2.408C258.864,402.346,261.623,401.898,265.094,403.413z"/>
	<path style="fill:#0BAA59;" d="M308.355,418.092c-0.434,0.98-1.185,1.46-1.964,1.886c-0.298,0.163-0.704,0.543-0.996,0.065
		c-0.202-0.33,0.113-0.652,0.387-0.832C306.544,418.711,307.237,418.011,308.355,418.092z"/>
	<path style="fill:#02A652;" d="M84.846,162.066c1.121-4.902,0.336-6.914-3.202-8.21c1.1-1.657,2.708-1.963,4.241-0.808
		C88.637,155.123,88.018,160.503,84.846,162.066z"/>
	<path style="fill:#1EAF65;" d="M66.493,134.691c-0.953-1.077-1.04-2.081-1.151-3.069c-0.029-0.254-0.078-0.605,0.278-0.687
		c0.405-0.093,0.655,0.189,0.71,0.537C66.479,132.433,66.792,133.395,66.493,134.691z"/>
	<path style="fill:#FEFEFE;" d="M244.568,68.603c0.774,3.58,1.537,7.033,2.554,10.422c1.928,6.425,4.436,12.66,6.158,19.155
		c2.345,8.841,1.541,17.087-4.135,24.583c-0.971,1.283-1.489,1.473-2.753,0.298c-6.719-6.243-9.408-13.99-8.983-23.006
		c0.262-5.566,1.519-10.944,2.95-16.289C241.7,78.758,243.129,73.772,244.568,68.603z"/>
	<path d="M232.497,190.189c-0.209-2.07-0.664-4.124-0.463-6.321c0.755,0.05,1.013,0.445,1.192,1.11
		c0.67,2.492,0.912,2.674,3.419,2.688c7.793,0.041,15.585,0.076,23.378,0.087c1.181,0.002,2.361-0.158,3.543-0.205
		c3.48-0.138,6.196,0.968,7.398,4.637c-0.026-2.813-0.87-5.515-0.567-8.323c0.989-0.011,1.073,0.743,1.266,1.438
		c0.444,1.603,1.153,2.471,3.184,2.436c8.129-0.138,16.263,0.037,24.395-0.008c1.727-0.01,2.502,1.23,3.635,2.308
		c-0.808,0-1.625,0.074-2.423-0.017c-1.287-0.146-1.729,0.242-1.712,1.635c0.08,6.666,0.036,13.333,0.036,19.999
		c0,0.378,0,0.755,0,1.212c-1.033-0.14-1.385-0.87-1.764-1.525c-2.824-4.87-7.03-7.498-12.656-7.784
		c-0.737-0.037-1.252-0.24-1.739-0.795c-0.744-0.847-1.554-1.642-2.39-2.4c-0.631-0.572-0.563-0.909,0.129-1.38
		c2.463-1.678,4.888-3.411,7.387-5.165c-1.036-0.967-2.312-1.306-3.644-1.507c-2.273-0.342-4.53-0.512-6.529-2.009
		c-1.05-0.786-2.642-0.285-3.976-0.212c-0.839,0.046-0.455,0.901-0.456,1.383c-0.026,6.723-0.017,13.446-0.017,20.169
		c0,0.551,0,1.102,0,1.808c-1.981-1.076-3.031-2.265-2.903-4.657c0.246-4.62,0.077-9.262,0.07-13.894
		c-0.004-2.588-1.752-4.502-4.302-4.736c-4.499-0.413-4.499-0.413-4.499,4.081c0,6.136,0,12.272,0,18.494
		c-1.061-0.224-1.377-0.961-1.569-1.707c-0.854-3.329-3.361-5.069-6.164-6.551c-0.552-0.292-0.926-0.241-1.504,0.126
		c-1.737,1.1-3.641,1.78-5.765,1.45c-2.335-0.363-3.485-1.535-3.549-3.608c-0.046-1.483,1.643-3.353,3.411-3.738
		c1.488-0.324,2.991-0.405,4.604,0c-0.284-2.65-1.765-4.107-4.003-4.848c-1.442-0.477-2.94-0.792-4.422-1.14
		c-0.966-0.227-1.947-0.582-2.448-1.395c-1.218-1.976-3.087-1.177-4.721-1.245c-0.904-0.037-0.523,0.85-0.525,1.319
		c-0.028,5.762-0.018,11.525-0.018,17.288c0,1.524,0,3.048,0,4.591c-2.341-0.929-2.831-1.636-2.831-4.03
		c0-4.689,0.01-9.378-0.003-14.068c-0.008-3.036-1.859-4.913-4.919-5.032c-3.541-0.138-3.541-0.138-3.541,3.355
		c0,6.365,0,12.729,0,19.219c-1.118-0.407-1.315-1.335-1.636-2.122c-1-2.451-2.511-4.522-4.46-6.3
		c-0.516-0.471-0.872-0.74-1.502-0.083c-4.078,4.255-10.027,2.881-13.732,0.092c-4.305-3.24-6.156-8.017-7.929-12.974
		c1.317,0.036,1.944,0.617,2.347,1.681c1.417,3.741,3.517,6.925,7.29,8.73c2.422,1.159,4.909,1.656,7.551,1.015
		c1.545-0.375,2.693-1.25,2.918-2.912c0.244-1.798-0.391-3.355-1.737-4.547c-0.925-0.82-1.615-0.123-2.31,0.525
		c-1.694,1.581-3.944,1.759-5.88,0.532c-0.93-0.59-1.473-1.376-1.377-2.521c0.091-1.086,0.762-1.741,1.68-2.158
		c1.874-0.85,3.793-0.588,5.621,0.061c3.919,1.391,7.019,3.432,7.253,8.266c0.084,1.724,1.91,2.902,3.177,4.304
		c0-3.64,0-7.279,0-10.919c0-3.357,0-3.357-3.332-3.357c-7.005,0-14.01-0.069-21.013,0.042c-2.063,0.033-3.754-0.382-5.12-2.101
		c0.498-0.4,1.125-0.204,1.68-0.205c9.321-0.015,18.642,0,27.962-0.02c1.632-0.004,3.264-0.176,4.897-0.201
		c2.827-0.044,5.075,0.949,6.274,3.696c0.177,0.133,0.347,0.272,0.42,0.643C232.54,191.233,232.732,190.705,232.497,190.189z"/>
	<path d="M212.152,235.655c-0.249-2.462-0.861-4.89-0.726-7.46c0.974,0.003,1.159,0.654,1.317,1.391
		c0.362,1.69,1.2,2.482,3.16,2.456c7.794-0.105,15.59,0.055,23.385-0.013c2.203-0.019,4.134,0.243,5.613,2.348
		c-0.942,0-1.866,0.085-2.768-0.02c-1.418-0.165-1.919,0.205-1.893,1.789c0.109,6.553,0.046,13.108,0.046,19.663
		c0,0.552,0,1.103,0,1.715c-0.822-0.249-1.015-0.727-1.087-1.42c-0.364-3.495-1.703-6.687-3.567-9.586
		c-1.718-2.673-4.339-4.124-7.639-4.349c0.021,0.868,0.706,1.126,1.017,1.634c1.192,1.942,0.297,4.082-1.927,4.55
		c-1.009,0.212-2.018,0.175-3.028,0.037c-2.126-0.292-3.419-1.23-3.752-2.873c-0.392-1.931,0.159-3.568,1.758-4.803
		c3.049-2.355,7.816-2.116,11.168,0.544c1.565,1.242,2.711,2.842,3.831,4.455c0.613-0.235,0.33-0.702,0.333-1.025
		c0.026-3.051-0.01-6.103,0.032-9.153c0.012-0.855-0.202-1.182-1.126-1.177c-6.948,0.036-13.896,0.049-20.843-0.009
		c-1.2-0.01-1.213,0.552-1.21,1.437c0.022,6.667,0.012,13.335,0.012,20.002c0,0.612,0,1.223,0,2.032
		c-1.842-1.089-3.076-2.07-2.949-4.461c0.245-4.62,0.073-9.263,0.071-13.896c-0.001-2.788-1.808-4.935-4.587-4.988
		c-6.551-0.125-13.105-0.063-19.658-0.113c-0.88-0.007-1.07,0.399-1.014,1.135c0.165,2.173,1.019,4.024,2.605,5.518
		c0.643,0.606,1.274,0.5,1.955-0.05c1.052-0.849,2.15-1.647,3.263-2.416c2.564-1.772,5.343-1.694,8.08-0.616
		c3.417,1.345,3.917,4.66,1.087,6.918c-0.703,0.561-0.55,0.84-0.165,1.456c2.708,4.338,1.49,6.715-3.674,6.984
		c-3.727,0.194-6.49-1.545-8.47-4.995c-1.236,4.229-4.41,5.201-8.081,4.978c-4.663-0.282-8.356-2.472-10.492-6.67
		c-1.531-3.01-2.112-6.383-2.795-9.729c1.939,0.42,1.982,0.413,2.305,2.442c0.745,4.674,3.124,8.146,7.389,10.281
		c2.703,1.353,6.331,0.852,8.509-1.194c0.46-0.433,0.842-0.922,0.985-1.549c0.323-1.418-0.387-2.075-1.753-1.651
		c-1.996,0.619-3.985,1.229-6.132,0.986c-3.54-0.4-5.573-3.647-4.36-7.033c0.587-1.639,1.397-2.787,3.462-4.781
		c-1.732,0-3.193,0-4.653,0c-1.469,0-2.957-0.148-4.402,0.036c-2.019,0.257-3.251-0.788-4.62-2.347c0.813,0,1.403,0,1.994,0
		c10.734,0,21.469,0.006,32.203-0.007c1.522-0.002,3.045-0.081,4.566-0.15c3.192-0.143,5.625,0.969,6.866,4.092
		c0.101,0.11,0.217,0.243,0.358,0.084C212.256,235.963,212.235,235.799,212.152,235.655z"/>
	<path d="M291.488,234.575c-0.249-2.067-0.607-4.127-0.474-6.308c0.923-0.027,1.065,0.565,1.224,1.242
		c0.361,1.533,0.992,2.696,2.937,2.594c1.423-0.074,2.024,1.382,3.035,2.274c-1.048,0-2.104,0.081-3.141-0.022
		c-1.095-0.109-1.298,0.322-1.291,1.328c0.042,6.779,0.022,13.559,0.022,20.338c0,0.544,0,1.087,0,1.787
		c-2.019-1.075-3.024-2.308-2.9-4.674c0.236-4.507,0.07-9.036,0.068-13.555c-0.002-2.902-1.828-5.053-4.704-5.105
		c-6.607-0.121-13.217-0.067-19.825-0.106c-0.703-0.004-1.015,0.183-1.007,0.944c0.031,2.748,0.012,5.497,0.012,8.563
		c1.468-1.007,2.714-1.832,3.929-2.701c2.082-1.489,4.403-2.48,6.76-3.433c1.37-0.553,2.543-0.565,3.759,0.366
		c0.934,0.715,2.484,1.063,2.858,1.953c0.392,0.935-0.915,2.006-1.441,3.036c-1.922,3.763-2.51,7.684-1.579,11.821
		c0.181,0.805,0.316,1.621,0.477,2.454c-1.417-0.056-2.013-0.742-2.347-2.005c-1.177-4.455-1.867-8.907-0.318-13.717
		c-4.669,1.423-8.202,3.886-10.728,7.657c-0.687,1.024-0.956,0.817-1.819,0.281c-2.196-1.365-3.008-3.146-2.777-5.745
		c0.245-2.746,0.031-5.532,0.07-8.3c0.011-0.814-0.115-1.189-1.082-1.192c-2.27-0.008-2.333-0.103-4.489-2.282
		c0.661,0,1.129,0.004,1.597-0.001c8.639-0.08,17.281,0.181,25.919-0.156c3.06-0.119,5.585,0.714,6.933,3.747
		c0.178,0.143,0.327,0.308,0.398,0.519c0.104-0.058-0.019-0.11,0-0.167C291.533,235.524,291.699,235.04,291.488,234.575z"/>
	<path d="M234.206,150.835c-0.408-3.494-0.841-6.986-0.814-10.725c2.013,0.749,2.188,3.887,4.813,3.367
		c0.697,0.775,2.184,0.61,2.369,1.993c-0.882,0.293-1.801,0.2-2.686,0.127c-1.282-0.106-1.728,0.241-1.708,1.638
		c0.086,6.039,0.034,12.08,0.039,18.12c0.001,1.443,0.06,2.888-0.471,4.378c-0.718-0.511-1.307-1.135-1.666-1.874
		c-1.64-3.375-4.575-4.207-7.987-4.282c-3.151-0.069-6.292,0.504-9.449,0.033c-5.853-0.872-8.233-4.337-6.9-10.275
		c0.978,0.469,1.494,0.973,1.399,2.244c-0.162,2.17,2.187,4.126,5.159,4.406c2.13,0.201,4.276,0.262,6.417,0.304
		c3.686,0.073,7.178,0.709,10.468,3.498c-0.3-3.932,1.262-7.574-0.634-11.108c-0.341-0.635-0.839-1.196-1.32-1.743
		c-0.576-0.654-1.128-0.642-1.853-0.041c-2.343,1.946-4.822,3.731-7.115,5.732c-1.216,1.061-2.356,1.336-3.795,0.697
		c-0.56-0.249-1.162-0.4-1.991-0.679c0.786-0.672,1.414-1.261,2.095-1.779c0.988-0.751,1.008-1.693,0.622-2.728
		c-0.386-1.033-1.237-0.929-2.117-0.893c-0.982,0.04-1.864,0.42-2.79,0.645c-1.024,0.25-1.793-0.146-2.363-0.918
		c-0.621-0.842-0.139-1.546,0.374-2.281c5.122-7.339,17.193-6.316,20.944,1.531c0.17,0.355,0.395,0.683,0.595,1.024
		C234.456,151.546,234.206,151.08,234.206,150.835z"/>
	<path d="M299.563,235.303c1.428,0.164,2.093,0.823,2.55,1.921c1.288,3.09,3.109,5.896,5.183,8.493
		c2.327,2.914,5.449,4.692,9.144,5.35c2.09,0.372,4.033-0.132,5.833-1.22c0.86-0.52,1.439-1.271,1.631-2.263
		c0.181-0.932-0.298-1.584-0.94-2.219c-0.659-0.651-1.101-0.092-1.641,0.115c-0.419,0.16-0.858,0.309-1.3,0.36
		c-1.916,0.224-3.789-1.129-3.835-2.736c-0.044-1.534,1.643-2.923,3.551-2.892c0.448,0.007,0.905,0.068,1.339,0.18
		c1.557,0.403,2.374-0.433,2.779-1.747c0.42-1.364-0.315-2.642-1.762-2.968c-3.46-0.781-6.419,0.456-9.139,2.484
		c-0.55,0.41-0.486,0.715,0.072,1.14c0.945,0.72,1.241,1.762,0.866,2.877c-0.406,1.21-1.587,1.221-2.557,1.244
		c-1.533,0.036-3.107-0.115-3.931-1.735c-0.696-1.368-0.313-3.194,1.001-4.494c3.68-3.64,8.225-4.668,13.111-3.682
		c4.495,0.908,5.738,4.31,3.318,8.724c-0.703,1.282-0.528,1.888,0.337,2.923c2.462,2.944,1.053,7.474-2.752,8.815
		c-3.87,1.364-7.676,1.093-11.201-1.156c-2.944-1.878-5.354-4.28-7.123-7.334C302.256,242.301,300.858,238.94,299.563,235.303z"/>
	<path d="M263.301,164.405c-5.553,1.621-10.583,0.99-14.811-3.34c-3.563-3.648-5.437-8.187-7.107-12.937
		c1.286-0.191,1.772,0.453,2.185,1.438c1.927,4.603,4.761,8.474,9.381,10.687c4.816,2.307,9.801,1.426,12.528-2.011
		c1.125-1.417,1.419-2.887,0.7-4.569c-0.493-1.152-0.941-1.653-2.108-0.508c-2.929,2.872-6.559,3.336-10.377,2.488
		c-2.803-0.622-4.095-2.224-4.006-4.47c0.066-1.652,1.22-2.863,3.112-3.264c2.126-0.451,4.218,0.322,4.904,1.764
		c0.585,1.228-0.29,2.098-0.91,3.365c2.525-0.908,4.343-2.287,5.711-4.154c0.662-0.903,1.207-1.123,1.997-0.438
		c2.359,2.046,4.835,4.181,4.858,7.568c0.025,3.654-2.06,6.198-5.281,7.82C263.834,164.052,263.68,164.385,263.301,164.405z"/>
	<path style="fill:#010101;" d="M263.301,164.405c0.177-0.3,0.411-0.521,0.776-0.561c1.12,1.395,2.33,2.738,2.111,4.745
		c-0.064,0.591,0.483,0.801,0.886,1.116c1.637,1.278,3.397,2.432,4.667,4.117c0.553,0.734,1.128,1.501,1.102,2.497
		c-0.758,0.235-0.988-0.343-1.344-0.643c-1.769-1.487-3.647-2.815-5.587-4.072c-0.997-0.646-1.766-0.67-2.659,0.139
		c-2.094,1.898-4.524,1.707-6.988,0.954c-1.129-0.345-2.021-0.988-2.169-2.302c-0.16-1.422,0.542-2.397,1.694-3.046
		c1.523-0.858,3.164-1.17,4.876-0.627c0.947,0.3,1.871,0.676,2.9,1.053C263.572,166.572,263.819,165.466,263.301,164.405z"/>
	<path d="M240.574,145.47c-0.524-0.98-2.139-0.664-2.369-1.993c1.857-0.043,3.715-0.118,5.572-0.122
		c7.231-0.014,14.464,0.076,21.693-0.057c2.098-0.039,3.702,0.54,5.067,2.061c-0.091,0.369-0.422,0.257-0.668,0.257
		c-9.435,0.007-18.869,0.007-28.304-0.001C241.235,145.615,240.905,145.521,240.574,145.47z"/>
	<path style="fill:#010101;" d="M282.847,158.767c-0.892-0.245-1.186-0.73-1.354-1.469c-0.859-3.792-1.66-7.594-2.21-11.445
		c-0.071-0.497-0.094-1.019-0.03-1.515c0.173-1.344,0.775-2.404,2.26-2.545c1.405-0.133,2.14,0.752,2.614,1.959
		c0.498,1.269,0.323,2.568,0.169,3.846C283.852,151.289,283.344,154.973,282.847,158.767z"/>
	<path style="fill:#010101;" d="M287.342,211.662c-1.738-0.021-3.087-1.095-3.078-2.452c0.009-1.41,1.229-2.388,2.924-2.342
		c1.757,0.047,3.122,1.123,3.11,2.451C290.286,210.689,289.032,211.683,287.342,211.662z"/>
	<path style="fill:#030303;" d="M282.753,164.876c-1.645,0.007-3.012-0.995-3.073-2.252c-0.057-1.173,1.418-2.225,3.091-2.205
		c1.615,0.019,2.576,0.868,2.554,2.259C285.304,164.121,284.428,164.87,282.753,164.876z"/>
	<path style="fill:#B3B5B7;" d="M232.497,190.189c0.373,0.699,0.368,1.429,0.175,2.4c-0.226-0.574-0.377-0.957-0.528-1.341
		C232.579,191.001,232.268,190.505,232.497,190.189z"/>
	<path style="fill:#CBCCCD;" d="M291.488,234.575c0.353,0.552,0.247,1.188,0.324,1.79c-0.129,0.117-0.258,0.118-0.389,0.004
		c-0.086-0.238-0.172-0.475-0.257-0.713C291.273,235.295,291.381,234.935,291.488,234.575z"/>
	<path style="fill:#7D7E81;" d="M212.152,235.655c0.429,0.353,0.299,0.792,0.255,1.269c-0.485-0.188-0.65-0.494-0.617-0.923
		C211.91,235.886,212.031,235.77,212.152,235.655z"/>
	<path style="fill:#C6C7C9;" d="M234.206,150.835c0.286,0.323,0.234,0.714,0.228,1.111c-0.423-0.055-0.516-0.369-0.592-0.698
		C233.963,151.11,234.084,150.973,234.206,150.835z"/>
	<path style="fill:#EC1C24;" d="M245.973,91.928c3.541,5.954,4.928,12.19,3.632,18.897c-0.459,2.378-1.746,4.381-3.957,5.641
		c-0.518,0.295-0.953,0.613-1.27-0.227c-3.091-8.192-3.458-16.237,1.257-24.018C245.662,92.176,245.718,92.147,245.973,91.928z"/>
	<path style="fill:#FDFDFD;" d="M286.481,190.036c2.763,0,5.526,0.023,8.288-0.015c0.776-0.01,1.088,0.175,1.082,1.024
		c-0.035,5.233-0.017,10.467-0.017,16.158c-2.773-3.429-6.074-5.402-10.066-6.466c1.96-2.205,4.439-3.574,6.633-5.52
		C290.533,193.344,288.602,191.637,286.481,190.036z"/>
	<path style="fill:#FDFDFD;" d="M258.653,205.613c-1.611-1.512-2.913-2.746-4.232-3.96c-0.301-0.277-0.518-0.534-0.526-0.984
		c-0.08-4.205-2.351-7.007-5.814-9.05c-0.656-0.387-1.263-0.857-2.318-1.581c4.349,0,8.2,0.01,12.052-0.009
		c0.692-0.003,0.847,0.326,0.845,0.931C258.648,195.73,258.653,200.502,258.653,205.613z"/>
	<path style="fill:#FDFDFD;" d="M198.481,250.941c-3.238-0.075-6.64-2.639-7.541-5.617c-0.276-0.912-0.173-1.649,0.536-2.297
		c1.335-1.222,2.734-2.361,4.38-3.141c1.828-0.866,3.586-0.711,5.309,0.371c0.819,0.514,1.198,1.138,0.56,1.917
		c-0.5,0.61-0.795,1.864-2.158,0.819c-1.192-0.914-3.038-0.423-3.922,0.771c-0.535,0.723-0.757,1.559-0.385,2.391
		c0.354,0.792,1.113,1.075,1.956,1.101c0.848,0.027,1.739,0.109,2.484-0.338c0.956-0.573,1.517-0.242,2.088,0.562
		c0.644,0.908,0.465,1.692-0.203,2.438C200.756,250.847,199.636,250.965,198.481,250.941z"/>
	<path style="fill:#FDFDFD;" d="M181.237,243.704c-2.207-0.028-3.179-1.519-2.394-3.256c0.251-0.556,0.625-1.072,1.013-1.549
		c2.311-2.842,2.673-2.827,4.766,0.127c0.033,0.046,0.064,0.093,0.097,0.139c1.95,2.745,1.956,2.76-1.342,3.969
		C182.591,243.423,181.752,243.57,181.237,243.704z"/>
	<path style="fill:#666669;" d="M291.423,236.369c0.13-0.001,0.259-0.002,0.389-0.004c0.315,0.204,0.459,0.628,0.141,0.726
		C291.547,237.216,291.424,236.752,291.423,236.369z"/>
	<path style="fill:#FDFDFD;" d="M221.377,152.911c-0.521-2.643-1.278-3.426-3.801-4.082c1.46-3.122,6.545-3.721,10.217-1.055
		C225.676,149.469,223.602,151.129,221.377,152.911z"/>
	<path style="fill:#F1F1F1;" d="M259.322,168.638c0.848,0.189,2.231-0.162,2.354,0.969c0.093,0.858-1.264,0.869-2.037,1.092
		c-0.97,0.281-1.99,0.539-2.858-0.285c-0.264-0.25-0.343-0.634-0.118-0.927C257.333,168.617,258.345,168.737,259.322,168.638z"/>
</g>
</svg>
