<svg fill="none" height="1392" viewBox="0 0 1200 1392" width="1200" xmlns="http://www.w3.org/2000/svg" xmlns:xlink="http://www.w3.org/1999/xlink"><mask id="mask0_359_946" height="80" maskUnits="userSpaceOnUse" width="369" x="416" y="1212"><path d="M784.816 1212H416V1292H784.816V1212Z" fill="#ffffff"/></mask><mask id="mask1_359_946" height="80" maskUnits="userSpaceOnUse" width="369" x="416" y="1212"><path d="M784.816 1212H416V1292H784.816V1212Z" fill="#ffffff"/></mask><mask id="mask2_359_946" height="80" maskUnits="userSpaceOnUse" width="369" x="416" y="1212"><path d="M784.816 1212H416V1292H784.816V1212Z" fill="#ffffff"/></mask><mask id="mask3_359_946" height="80" maskUnits="userSpaceOnUse" width="369" x="416" y="1212"><path d="M784.816 1212H416V1292H784.816V1212Z" fill="#ffffff"/></mask><mask id="mask4_359_946" height="80" maskUnits="userSpaceOnUse" width="369" x="416" y="1212"><path d="M784.816 1212H416V1292H784.816V1212Z" fill="#ffffff"/></mask><mask id="mask5_359_946" height="80" maskUnits="userSpaceOnUse" width="369" x="416" y="1212"><path d="M784.816 1212H416V1292H784.816V1212Z" fill="#ffffff"/></mask><mask id="mask6_359_946" height="80" maskUnits="userSpaceOnUse" width="369" x="416" y="1212"><path d="M784.816 1212H416V1292H784.816V1212Z" fill="#ffffff"/></mask><mask id="mask7_359_946" height="80" maskUnits="userSpaceOnUse" width="369" x="416" y="1212"><path d="M784.816 1212H416V1292H784.816V1212Z" fill="#ffffff"/></mask><mask id="mask8_359_946" height="80" maskUnits="userSpaceOnUse" width="369" x="416" y="1212"><path d="M784.816 1212H416V1292H784.816V1212Z" fill="#ffffff"/></mask><rect fill="#ffffff" height="1392" rx="20" width="1200"/><path d="M601 89 592.34 104 609.66 104 601 89ZM601 1112 609.66 1097 592.34 1097 601 1112ZM599.5 102.5 599.5 1098.5 602.5 1098.5 602.5 102.5 599.5 102.5Z" fill="#000000"/><path d="M1111 607 1096 598.34 1096 615.66 1111 607ZM88.0001 607 103 615.66 103 598.34 88.0001 607ZM1097.5 605.5 101.5 605.5 101.5 608.5 1097.5 608.5 1097.5 605.5Z" fill="#000000"/><path d="M969 174C969 174 849.535 434.319 740.025 445.254 644.273 454.816 625 351 478 351 359 351 281.369 469.971 282 601 282.627 731.288 366 864 478 864 567 864 645.102 755.99 740.025 766.28 880.081 781.462 969 1045 969 1045" stroke="#95d1f9" stroke-linecap="round" stroke-width="23"/><g mask="url(#mask0_359_946)"><path clip-rule="evenodd" d="M780.735 1237.66H779.814V1238.84H780.735C781.13 1238.84 781.525 1238.71 781.525 1238.18 781.525 1237.79 781.13 1237.66 780.735 1237.66ZM779.814 1241.61H778.761V1236.61H780.735C781.656 1236.61 782.577 1237.13 782.577 1238.18 782.577 1238.97 782.183 1239.37 781.656 1239.63L782.709 1241.61H781.525L780.604 1239.76H779.814V1241.61ZM776.919 1239.11C776.919 1241.08 778.498 1242.66 780.472 1242.66 782.446 1242.66 784.025 1241.08 784.025 1239.11 784.025 1237.13 782.446 1235.55 780.472 1235.55 778.498 1235.55 776.919 1237.13 776.919 1239.11ZM776.13 1239.11C776.13 1236.74 778.104 1234.76 780.472 1234.76 782.84 1234.76 784.814 1236.74 784.814 1239.11 784.814 1241.47 782.84 1243.45 780.472 1243.45 778.104 1243.45 776.13 1241.61 776.13 1239.11Z" fill="#151922" fill-rule="evenodd"/></g><g mask="url(#mask1_359_946)"><path clip-rule="evenodd" d="M571.394 1273.58 553.631 1246.87V1273.58H545.605V1234.76H554.816L571.658 1260.16V1234.76H579.552V1273.58H571.394Z" fill="#151922" fill-rule="evenodd"/></g><g mask="url(#mask2_359_946)"><path clip-rule="evenodd" d="M597.709 1267.13C594.025 1267.13 591.13 1264.37 591.13 1260.29 591.13 1256.34 594.025 1253.58 597.578 1253.58 601.262 1253.58 604.157 1256.34 604.157 1260.29 604.288 1264.37 601.394 1267.13 597.709 1267.13ZM597.841 1246.47C589.815 1246.47 583.367 1252.53 583.367 1260.42 583.367 1268.45 589.815 1274.24 597.841 1274.24 605.867 1274.24 612.315 1268.32 612.315 1260.29 612.183 1252.4 605.736 1246.47 597.841 1246.47Z" fill="#151922" fill-rule="evenodd"/></g><g mask="url(#mask3_359_946)"><path clip-rule="evenodd" d="M632.184 1247.13V1254.76C631.131 1254.5 630.078 1254.5 629.684 1254.5 625.999 1254.5 623.368 1257.13 623.368 1262V1273.58H615.736V1247.13H623.105V1250.95H623.236C624.684 1247.92 627.315 1246.74 630.078 1246.74 630.736 1246.87 631.657 1247 632.184 1247.13Z" fill="#151922" fill-rule="evenodd"/></g><g mask="url(#mask4_359_946)"><path clip-rule="evenodd" d="M647.975 1267.13C644.291 1267.13 641.396 1264.37 641.396 1260.29 641.396 1256.34 644.291 1253.58 647.975 1253.58 651.659 1253.58 654.554 1256.34 654.554 1260.29 654.554 1264.37 651.659 1267.13 647.975 1267.13ZM654.422 1234.76V1250.16H654.291C651.528 1247 647.843 1246.61 646.396 1246.61 638.764 1246.61 633.764 1253.58 633.764 1260.29 633.764 1267.39 638.633 1274.11 646.396 1274.11 648.238 1274.11 652.185 1273.84 654.685 1270.29H654.817V1273.71H662.317V1234.89H654.422V1234.76Z" fill="#151922" fill-rule="evenodd"/></g><g mask="url(#mask5_359_946)"><path clip-rule="evenodd" d="M678.498 1273.58 664.419 1234.76H673.104L683.235 1264.24 693.367 1234.76H701.788L687.709 1273.58H678.498Z" fill="#151922" fill-rule="evenodd"/></g><g mask="url(#mask6_359_946)"><path clip-rule="evenodd" d="M718.895 1252.39H713.105V1242.26H718.763C722.053 1242.26 725.21 1243.58 725.21 1247.26 725.342 1251.08 722.053 1252.39 718.895 1252.39ZM719.553 1234.76H705.079V1273.58H713.105V1259.89H719.158C727.316 1259.89 733.368 1255.82 733.368 1247.26 733.5 1238.97 727.316 1234.76 719.553 1234.76Z" fill="#151922" fill-rule="evenodd"/></g><g mask="url(#mask7_359_946)"><path clip-rule="evenodd" d="M763.237 1273.58 745.474 1246.87V1273.58H737.448V1234.76H746.658L763.5 1260.16V1234.76H771.527V1273.58H763.237Z" fill="#151922" fill-rule="evenodd"/></g><g mask="url(#mask8_359_946)"><path clip-rule="evenodd" d="M425.605 1292C419.553 1283.71 416 1273.45 416 1262.39 416 1234.5 438.5 1212 466.395 1212 494.289 1212 516.789 1234.63 516.789 1262.39 516.789 1273.45 513.237 1283.71 507.184 1292L482.974 1252.66 480.605 1256.61 482.974 1267.53 466.395 1239.11 456.132 1256.47 458.5 1267.53 449.816 1252.66 425.605 1292Z" fill="#3e5fff" fill-rule="evenodd"/></g></svg>