<?xml version="1.0" encoding="UTF-8"?>
<svg width="572px" height="546px" viewBox="0 0 572 546" version="1.1" xmlns="http://www.w3.org/2000/svg" xmlns:xlink="http://www.w3.org/1999/xlink">
    <title>Zero-knowledge proof</title>
    <g id="seo-landing" stroke="none" stroke-width="1" fill="none" fill-rule="evenodd">
        <g id="Zero-knowledge-proof">
            <rect id="bg" fill="#232731" x="0" y="0" width="572" height="546"></rect>
            <g id="Group-62" transform="translate(30.000000, 17.000000)">
                <g id="Group-45">
                    <circle id="Oval-Copy-14" stroke="#000000" stroke-width="2" fill="#393E4A" stroke-linecap="round" stroke-linejoin="round" cx="256" cy="256" r="256"></circle>
                    <circle id="Oval" stroke="#000000" stroke-width="2" fill="#4B5263" stroke-linecap="round" stroke-linejoin="round" cx="256" cy="256" r="90.6863469"></circle>
                    <path d="M258.009184,225.777314 C278.0326,226.063848 297.515393,236.450163 316.457565,256.93626 C299.206099,276.765916 280.194466,286.532122 259.422664,286.234879 C238.650862,285.937635 217.672336,275.599172 196.487085,255.219489 C217.478401,235.304838 237.985768,225.49078 258.009184,225.777314 Z" id="Rectangle" fill="#FFFFFF"></path>
                    <circle id="Oval" fill="#000000" cx="256" cy="256" r="20.7822878"></circle>
                </g>
                <g id="􀓤" transform="translate(222.000000, 54.000000)" fill="#616B85" stroke="#000000" stroke-linecap="round" stroke-linejoin="round" stroke-width="2">
                    <path d="M34,-1 C43.5992785,-1 52.3536568,2.94583269 58.7058575,9.2980334 C65.0526093,15.6447852 69,24.3923727 69,34 C69,43.5992785 65.0541673,52.3536568 58.7019666,58.7058575 C52.3552148,65.0526093 43.6076273,69 34,69 C24.4048295,69 15.6537183,65.0494659 9.30212617,58.6978738 C2.95053406,52.3462817 -1,43.5951705 -1,34 C-1,24.3882576 2.94269485,15.6374098 9.29005231,9.29005231 C15.6374098,2.94269485 24.3882576,-1 34,-1 Z M34,36.1590909 C29.5737639,36.1590909 26.1430798,37.5702712 23.6323936,39.4847906 C20.0743978,42.1979341 18.3219697,45.9196128 18.3219697,47.8768939 C18.3219697,48.3906805 18.4411137,48.8702145 18.7507917,49.1992473 C19.0113368,49.4760765 19.4026846,49.6136364 19.8977273,49.6136364 L48.1344697,49.6136364 C48.6227144,49.6136364 49.0127239,49.4713187 49.2749044,49.1927519 C49.5838666,48.8644795 49.7102273,48.3884185 49.7102273,47.8768939 C49.7102273,45.9200476 47.9470867,42.2002356 44.3827496,39.4874935 C41.8655026,37.5716697 38.4285049,36.1590909 34,36.1590909 Z M34,15.4886364 C31.9680456,15.4886364 30.1304394,16.3830033 28.7968565,17.8085575 C27.4356866,19.2636012 26.5965909,21.2713575 26.5965909,23.4715909 C26.5965909,25.7982207 27.4136099,27.8406647 28.754198,29.3096616 C30.0924624,30.7761123 31.9513811,31.6656736 34.0069443,31.6799484 C36.0636334,31.6799242 37.9244679,30.7948881 39.2646411,29.331951 C40.6146446,27.8582831 41.4356061,25.8041464 41.4356061,23.4715909 C41.4356061,21.2700692 40.595457,19.2612316 39.2290551,17.80617 C37.8910758,16.3813753 36.0458824,15.4886364 34,15.4886364 Z" id="Shape"></path>
                </g>
                <g id="􀓤-copy" transform="translate(222.000000, 387.000000)" fill="#949BAC" stroke="#000000" stroke-linecap="round" stroke-linejoin="round" stroke-width="2">
                    <path d="M34,-1 C43.5992785,-1 52.3536568,2.94583269 58.7058575,9.2980334 C65.0526093,15.6447852 69,24.3923727 69,34 C69,43.5992785 65.0541673,52.3536568 58.7019666,58.7058575 C52.3552148,65.0526093 43.6076273,69 34,69 C24.4048295,69 15.6537183,65.0494659 9.30212617,58.6978738 C2.95053406,52.3462817 -1,43.5951705 -1,34 C-1,24.3882576 2.94269485,15.6374098 9.29005231,9.29005231 C15.6374098,2.94269485 24.3882576,-1 34,-1 Z M34,36.1590909 C29.5737639,36.1590909 26.1430798,37.5702712 23.6323936,39.4847906 C20.0743978,42.1979341 18.3219697,45.9196128 18.3219697,47.8768939 C18.3219697,48.3906805 18.4411137,48.8702145 18.7507917,49.1992473 C19.0113368,49.4760765 19.4026846,49.6136364 19.8977273,49.6136364 L48.1344697,49.6136364 C48.6227144,49.6136364 49.0127239,49.4713187 49.2749044,49.1927519 C49.5838666,48.8644795 49.7102273,48.3884185 49.7102273,47.8768939 C49.7102273,45.9200476 47.9470867,42.2002356 44.3827496,39.4874935 C41.8655026,37.5716697 38.4285049,36.1590909 34,36.1590909 Z M34,15.4886364 C31.9680456,15.4886364 30.1304394,16.3830033 28.7968565,17.8085575 C27.4356866,19.2636012 26.5965909,21.2713575 26.5965909,23.4715909 C26.5965909,25.7982207 27.4136099,27.8406647 28.754198,29.3096616 C30.0924624,30.7761123 31.9513811,31.6656736 34.0069443,31.6799484 C36.0636334,31.6799242 37.9244679,30.7948881 39.2646411,29.331951 C40.6146446,27.8582831 41.4356061,25.8041464 41.4356061,23.4715909 C41.4356061,21.2700692 40.595457,19.2612316 39.2290551,17.80617 C37.8910758,16.3813753 36.0458824,15.4886364 34,15.4886364 Z" id="Shape"></path>
                </g>
                <g id="􀓤-copy-2" transform="translate(37.000000, 209.000000)" fill="#4B5263" stroke="#000000" stroke-linecap="round" stroke-linejoin="round" stroke-width="2">
                    <path d="M47,-1 C60.1647364,-1 72.1703813,4.41205907 80.8818505,13.1235282 C89.5858359,21.8275136 95,33.8238371 95,47 C95,60.1647364 89.5879409,72.1703813 80.8764718,80.8818505 C72.1724864,89.5858359 60.1761629,95 47,95 C33.8409091,95 21.8397978,89.5814262 13.1291858,80.8708142 C4.41857383,72.1602022 -1,60.1590909 -1,47 C-1,33.8181818 4.40765698,21.817334 13.1124955,13.1124955 C21.817334,4.40765698 33.8181818,-1 47,-1 Z M47,49.6022727 C40.7813668,49.6022727 35.9632625,51.58852 32.4364626,54.2778751 C27.3891524,58.1266927 24.9450758,63.4132019 24.9450758,66.1827652 C24.9450758,67.0001243 25.1523294,67.7527314 25.6417826,68.2727754 C26.0651976,68.7226539 26.6946519,68.9659091 27.5056818,68.9659091 L66.5388258,68.9659091 C67.3386869,68.9659091 67.9673028,68.7168844 68.3937385,68.2637965 C68.8823627,67.7446332 69.0994318,66.996549 69.0994318,66.1827652 C69.0994318,63.4138318 66.6406269,58.1297456 61.5841879,54.2813961 C58.0483227,51.5903233 53.2215327,49.6022727 47,49.6022727 Z M47,21.0284091 C44.0830263,21.0284091 41.4432455,22.3093847 39.5281978,24.3565047 C37.5837967,26.4350024 36.3835227,29.3025996 36.3835227,32.4460227 C36.3835227,35.7662329 37.5536739,38.6785102 39.4660239,40.7740356 C41.3872533,42.8792907 44.0564181,44.1547237 47.0069443,44.1752135 C49.962704,44.1751894 52.635165,42.9060242 54.5595269,40.8053848 C56.4852052,38.7033086 57.6609848,35.7745277 57.6609848,32.4460227 C57.6609848,29.3005824 56.459099,26.4313038 54.5071223,24.3526721 C52.5862448,22.3071575 49.9363569,21.0284091 47,21.0284091 Z" id="Shape"></path>
                </g>
                <rect id="Rectangle" stroke="#000000" stroke-width="2" fill="#4B5263" stroke-linecap="round" stroke-linejoin="round" x="79" y="135" width="105" height="13"></rect>
                <rect id="Rectangle-Copy-20" stroke="#000000" stroke-width="2" fill="#4B5263" stroke-linecap="round" stroke-linejoin="round" x="79" y="164" width="48" height="13"></rect>
                <line x1="189" y1="319" x2="319" y2="189" id="Path-105" stroke="#16181E" stroke-width="16"></line>
            </g>
        </g>
    </g>
</svg>